<svg class="topbar__logo style-svg replaced-svg svg-replaced-0" id="svg-replaced-0" viewBox="0 0 945.19 548.27" xmlns="http://www.w3.org/2000/svg"><path d="M54.76 335.69C24.56 335.69 0 360.12 0 390.14c0 30.02 24.57 54.45 54.76 54.45 30.19 0 54.76-24.43 54.76-54.45 0-30.02-24.57-54.45-54.76-54.45Zm0 94.89c-22.42 0-40.67-18.14-40.67-40.44 0-22.3 18.24-40.44 40.67-40.44 22.43 0 40.67 18.14 40.67 40.44 0 22.3-18.24 40.44-40.67 40.44Zm212.02-23.46v-67.56h-14.1v67.56c0 12.93-10.58 23.45-23.59 23.45s-23.59-10.52-23.59-23.45v-67.56h-14.1v67.56c0 12.93-10.58 23.45-23.59 23.45s-23.58-10.52-23.58-23.45v-67.56h-14.1v67.56c0 20.66 16.9 37.47 37.68 37.47 12.63 0 23.79-6.23 30.64-15.73 6.84 9.5 18.01 15.73 30.64 15.73 20.78 0 37.69-16.81 37.69-37.47Zm368.2-71.43c30.2 0 54.77 24.43 54.77 54.46s-24.57 54.46-54.77 54.46c-30.2 0-54.77-24.43-54.77-54.46s24.57-54.46 54.77-54.46Zm-191.62-33.48a50.79 50.79 0 0 0 12.9 7.26l-.462.387c-14.43 12.5-23.623 30.81-23.815 51.24l-.003.653c0 37.95 31.06 68.83 69.23 68.83h2.71v14.02h-2.71c-45.94 0-83.32-37.17-83.32-82.85 0-23.35 9.78-44.46 25.47-59.54Zm86.44-10.74c4.48 3.11 9.19 5.91 14.1 8.37v107.28c0 12.93 10.58 23.45 23.58 23.45h2.71v14.02h-2.71c-20.78 0-37.68-16.81-37.68-37.47V291.47Zm191.39 48.09v50.58c0 22.29 18.25 40.43 40.67 40.43s40.67-18.13 40.67-40.43v-50.58h14.1v50.58c0 30.02-24.57 54.45-54.77 54.45-30.2 0-54.77-24.43-54.77-54.45v-50.58h14.1Zm224-86.27v153.94c-.38 20.69-21.2 37.35-38.19 37.35h-17.02c-30.2 0-54.77-24.42-54.77-54.45s24.56-54.46 54.76-54.46l41.12-.05v-82.33h14.1Zm-601.95 81.96c30.2 0 54.77 24.43 54.77 54.46v50.58h-14.1v-50.58c0-22.3-18.24-40.44-40.67-40.44-22.43 0-40.67 18.14-40.67 40.44v50.58h-14.1v-50.58c0-30.03 24.57-54.46 54.77-54.46Zm291.74 14.46c-22.42 0-40.67 18.14-40.67 40.44 0 22.3 18.25 40.44 40.67 40.44s40.67-18.14 40.67-40.44c0-22.3-18.25-40.44-40.67-40.44Zm296.15-.07-41.15.05c-22.42 0-40.67 18.15-40.67 40.44s18.25 40.43 40.67 40.43H907c10.33 0 23.87-11.44 24.09-23.59l.046-3.133c.062-5.222.086-12.383.088-19.94v-4.49l-.039-17.233c-.017-4.94-.038-9.31-.055-12.534ZM739.84 140.25c1.01 0 2.02.04 3.02.08 40.21 1.44 73.22 31.44 79.05 70.18a80.417 80.417 0 0 1 .84 8.9c.04 1.12.08 2.24.08 3.36 0 21.28-8.15 40.71-21.5 55.36-1 1.11-2.04 2.18-3.11 3.23a93.454 93.454 0 0 1-3.26 3.03c-14.67 12.98-33.97 20.89-55.11 20.89-24.49 0-46.52-10.6-61.72-27.42 19.06-19.2 31.38-45.01 33.15-73.63.09-1.432.152-2.876.186-4.327l.024-1.453c0-.45.03-.88.03-1.33a91.66 91.66 0 0 0-.076-3.417l-.044-1.143c-.59-15.2-4.18-29.65-10.18-42.8 9.97-5.24 21.13-8.5 32.96-9.3 1.44-.1 2.88-.16 4.34-.18l1.32-.03Zm-265.48 80.69c2.92 0 5.77.3 8.52.87 2.58 11.7 6.97 22.74 12.85 32.82a120.872 120.872 0 0 0 4.93 7.75c3.544 5.1 7.5 9.892 11.805 14.352l.875.898c-6.09 15.52-21.25 26.56-38.98 26.56-11.92 0-22.66-5-30.29-12.97-.99-1.03-1.92-2.12-2.8-3.25-.9-1.15-1.73-2.35-2.5-3.6-3.95-6.35-6.27-13.8-6.27-21.8 0-3.47.48-6.82 1.29-10.05.35-1.43.79-2.83 1.29-4.2.51-1.37 1.09-2.71 1.73-4.02 5.46-11.05 15.69-19.35 28.02-22.22 1.41-.33 2.83-.59 4.29-.77 1.42-.18 2.86-.29 4.32-.32.31-.01.61-.05.92-.05ZM595.84 90.72c.83 0 1.65.04 2.48.06 15.38.36 29.96 3.93 43.09 10.1h.02a110.599 110.599 0 0 1 7.77 4.07c17.1 9.82 31.24 24.19 40.7 41.46.68 1.25 1.33 2.54 1.97 3.82.65 1.31 1.26 2.64 1.86 3.98a105.15 105.15 0 0 1 9.12 42.91c0 .92-.05 1.83-.07 2.74-.04 1.84-.14 3.68-.28 5.5-.14 1.83-.33 3.64-.56 5.44-3.03 23.28-13.64 44.22-29.3 60.29-1.03 1.06-2.08 2.09-3.15 3.1-1.05.99-2.11 1.96-3.2 2.9-18.83 16.42-42.46 26.41-70.44 26.41-27.98 0-53.48-10.75-72.57-28.3-1.24-1.14-2.46-2.3-3.64-3.5-1.29-1.3-2.55-2.64-3.77-4.01a108.944 108.944 0 0 1-8.96-11.5 105.37 105.37 0 0 1-14.25-31.01c-.49-1.75-.93-3.52-1.32-5.31-.36-1.64-.68-3.3-.96-4.96-.99-5.79-1.53-11.73-1.53-17.79 0-22.97 7.38-44.25 19.88-61.66.84-1.18 1.71-2.34 2.6-3.48.9-1.15 1.82-2.29 2.77-3.41 5.67-6.67 12.14-12.64 19.28-17.76 1.22-.87 2.45-1.73 3.71-2.55 1.25-.82 2.51-1.62 3.79-2.39a106.655 106.655 0 0 1 50.522-15.023l1.378-.047c1.02-.03 2.03-.08 3.06-.08ZM388.56 151.1c.77 0 1.54.04 2.3.06a90.78 90.78 0 0 0-2.83 22.5c0 30.38 15.04 57.32 38.09 73.89a49.95 49.95 0 0 0-2.3 15c0 10 2.96 19.32 8.04 27.15a76.266 76.266 0 0 1-42.501 13.416l-.799.004c-42.15 0-76.44-34.1-76.44-76.01 0-41.91 34.29-76.01 76.44-76.01Zm449.45 65.4c23.08 0 41.86 18.68 41.86 41.63 0 22.95-18.78 41.62-41.86 41.62-12.62 0-23.93-5.61-31.61-14.42 15.54-16.34 25.1-38.35 25.1-62.56 0-1.91-.08-3.8-.2-5.68 2.19-.35 4.42-.59 6.71-.59ZM479.7 91.14c1.96 0 3.9.1 5.83.23a84.129 84.129 0 0 0 4.98 16.8c.56 1.35 1.15 2.68 1.78 3.99.62 1.31 1.28 2.61 1.97 3.88 2.46 4.53 5.34 8.81 8.56 12.8-14.22 19.11-22.65 42.73-22.65 68.27 0 5.32.39 10.54 1.1 15.67a50.86 50.86 0 0 0-6.91-.48c-.67 0-1.33.02-1.99.05-1.47.06-2.91.18-4.34.36-1.44.19-2.87.42-4.28.72-14.88 3.18-27.34 12.88-34.2 25.93l-.01-.02c-19.94-15.08-32.84-38.91-32.84-65.69a81.795 81.795 0 0 1 4.23-25.94c.47-1.39.97-2.76 1.5-4.11 6.07-15.37 16.63-28.5 30.09-37.78 1.2-.82 2.42-1.62 3.66-2.39 1.26-.77 2.54-1.52 3.84-2.23 11.8-6.41 25.32-10.06 39.68-10.06Zm178.08-28.68c39.9 0 72.74 30.56 76.13 69.38a91.34 91.34 0 0 0-36.55 10.2h-.01c-10.54-19.14-26.4-34.97-45.58-45.56a83.885 83.885 0 0 0 2.54-20.49c0-4.55-.37-9.02-1.07-13.38 1.5-.09 3.01-.15 4.54-.15ZM569.22 0c34.89 0 64.38 23.37 73.5 55.2.39 1.37.75 2.77 1.07 4.18.31 1.4.59 2.81.83 4.24.67 4.03 1.03 8.17 1.03 12.38 0 5.66-.65 11.18-1.84 16.5a115.423 115.423 0 0 0-37.75-9.92c-1.95-.17-3.92-.3-5.9-.37-1.44-.05-2.87-.11-4.32-.11-.51 0-1.01.04-1.51.04-22.26.28-43.02 6.85-60.57 18-1.29.82-2.57 1.66-3.83 2.53-1.26.88-2.51 1.77-3.74 2.69-6.51 4.89-12.46 10.47-17.8 16.6a76.68 76.68 0 0 1-9.01-15.12c-.63-1.4-1.23-2.82-1.77-4.26a74.424 74.424 0 0 1-3-10.07c-.33-1.5-.63-3.01-.88-4.54l.01.01c-.23-1.47-.43-2.95-.58-4.45a75.25 75.25 0 0 1 5.17-35.9c.59-1.45 1.21-2.89 1.88-4.29.65-1.35 1.34-2.67 2.07-3.98C515.32 15.91 540.43 0 569.22 0Zm-99.79 35.18c8.11 0 15.65 2.44 21.95 6.6a83.766 83.766 0 0 0-7.29 34.21c0 2.25.12 4.46.29 6.66a90.391 90.391 0 0 0-3.504-.113l-1.186-.007c-16.27 0-31.55 4.26-44.81 11.68-3.3-5.76-5.21-12.4-5.21-19.49 0-21.8 17.84-39.54 39.76-39.54ZM25.09 463.63 0 530.33h14.21l5.11-14.31h25.92l5.02 14.31H65.4l-24.9-66.71H25.08l.01.01Zm-1.77 41.15 9.1-25.74 8.92 25.74H23.32Zm120.41-41.15h-16.16l-24.25 29.36v-29.36H89.2v66.7h14.12v-30.47l23.78 30.47h17.38l-27.23-34.74 26.48-31.96Zm5.67 17.09h12.91v49.61H149.4v-49.61Zm6.32-19.32c-5.02 0-8.55 3.25-8.55 7.8s3.53 7.62 8.55 7.62c5.02 0 8.64-3.25 8.64-7.62 0-4.29-3.4-7.673-8.358-7.796l-.282-.004Zm33.35 4.64h-12.82v14.68h-10.03v11.06h10.03v22.48c0 11.15 6.41 17 16.63 17 3.81 0 6.78-.65 9.94-2.23v-11.24c-1.86 1.02-4.09 1.58-6.5 1.58-4.65 0-7.25-2.32-7.25-8.08v-19.51h14.21v-11.06h-14.21v-14.68Zm40.51 13.75c-14.31 0-24.62 10.78-24.62 25.55 0 15.52 9.94 25.83 24.81 25.83 12.08 0 20.72-6.41 23.51-17.65h-12.82c-1.49 4.92-5.3 7.71-10.96 7.71-6.6 0-10.5-4.46-11.33-12.54h35.21c2.32-16.17-8.08-28.89-23.78-28.89l-.02-.01Zm-11.24 20.72c1.11-7.34 4.92-11.24 10.96-11.24 6.04 0 10.03 4.37 10.41 11.24h-21.37Zm87.15 11.61-8.83-31.4h-12.72l-9.11 31.4-8.45-31.4h-12.55l14.13 49.61h12.91l9.29-32.23 9.38 32.23h12.83l14.21-49.61h-12.73l-8.36 31.4Zm46.37-32.33c-14.4 0-25.18 11.24-25.18 25.74 0 14.5 10.78 25.74 25.18 25.74s25.18-11.33 25.18-25.74c0-14.266-10.565-25.513-24.75-25.737l-.43-.003Zm0 40.05c-6.41 0-11.89-5.11-11.89-14.31s5.48-14.21 11.89-14.21 11.89 5.02 11.89 14.21c0 9.19-5.48 14.31-11.89 14.31Zm43.48-29.55v-9.57h-11.89v49.61h12.91v-24.06c0-10.96 7.34-13.56 18.3-12.73v-13.38c-7.85 0-15.43 3.677-19.126 9.8l-.194.33Zm92.91-10.5c12.45 0 21 6.6 21.93 17.28h-12.36c-.46-4.83-4.09-7.8-9.57-7.8-4.74 0-7.9 1.76-7.9 4.92 0 2.98 2.04 4.18 6.5 5.02l9.57 1.77c9.67 1.86 14.59 6.32 14.59 13.47 0 10.41-7.9 16.82-22.02 16.82s-22.02-6.78-23.04-17.84h12.36c.09 5.11 4.46 8.36 10.87 8.36 5.02 0 8.83-1.58 8.83-5.11 0-3.16-2.04-4.46-6.78-5.39l-8.92-1.67c-8.92-1.58-14.31-6.51-14.31-14.22 0-9.2 7.8-15.61 20.25-15.61Zm-55.84-16.16v38.09l18.12-21h14.86l-20.53 23.79 22.95 25.82h-16.45l-18.95-23.04v23.04h-12.92v-66.7h12.92Zm133.98 11.24c9.48 0 16.91 6.6 18.49 16.17h14.96c-2.32-17.1-16.07-28.8-33.63-28.8-18.77 0-33.45 15.14-33.45 34.66 0 19.52 14.68 34.84 33.45 34.84 17.56 0 31.31-11.61 33.63-28.89h-14.96c-1.67 9.57-9.01 16.26-18.49 16.26-11.43 0-19.14-9.1-19.14-22.2s7.71-22.02 19.14-22.02v-.02Zm62.25 4.92c-14.4 0-25.18 11.24-25.18 25.74 0 14.5 10.78 25.74 25.18 25.74s25.18-11.33 25.18-25.74c0-14.266-10.565-25.513-24.75-25.737l-.43-.003Zm0 40.05c-6.41 0-11.89-5.11-11.89-14.31s5.48-14.21 11.89-14.21 11.89 5.02 11.89 14.21c0 9.19-5.48 14.31-11.89 14.31Zm89.19-40.05c-7.43 0-12.45 3.34-16.35 8.83-2.51-5.67-7.71-8.83-14.49-8.83s-11.24 2.97-14.87 7.99v-7.06h-11.89v49.61h12.91v-27.69c0-7.43 4.09-11.43 9.29-11.43 5.67 0 8.64 4.18 8.64 11.15v27.97h12.82v-27.69c0-7.43 4.18-11.43 9.29-11.43 5.67 0 8.64 4.18 8.64 11.15v27.97h12.82v-32.05c0-11.756-6.628-18.341-16.483-18.488l-.327-.002Zm53.52 0c-6.32 0-11.8 2.88-15.61 8.18v-7.25h-11.89v67.54h12.91v-24.34c3.72 4.83 8.73 7.34 14.59 7.34 13.38 0 22.02-11.06 22.02-25.74 0-14.68-8.64-25.74-22.02-25.74v.01Zm-2.88 39.95c-6.32 0-11.61-4.83-11.61-14.22s5.3-14.31 11.61-14.31 11.61 5.02 11.61 14.31c0 9.29-5.3 14.22-11.61 14.22Zm50.73-39.95c-11.99 0-20.25 7.43-21 18.86h11.61c.46-5.57 3.81-8.83 9.38-8.83s8.55 3.25 8.55 8.83v2.97c-3.07-.37-5.48-.56-8.27-.56-14.49 0-22.3 5.2-22.3 14.87 0 9.67 6.87 15.33 17.19 15.33 6.78 0 11.71-2.42 14.96-7.06v6.13h10.5v-31.22c0-12.043-7.462-19.17-20.225-19.318l-.395-.002Zm8.55 33.17c0 5.76-4 9.38-10.59 9.38-4.83 0-7.8-2.6-7.8-6.78 0-4.46 3.62-6.78 10.96-6.78 2.23 0 4.37.19 7.43.65v3.53Zm48.5-33.17c-6.5 0-11.61 3.07-15.24 7.99v-7.06h-11.89v49.61h12.91v-27.04c0-7.99 4.37-12.08 9.48-12.08 5.85 0 8.73 4.09 8.73 11.43v27.69h12.82v-32.05c0-11.845-6.726-18.343-16.486-18.488l-.324-.002Zm44.69 34.94-12.45-34.01h-13.94l19.51 49.06-7.06 18.49h14.03l24.16-67.55h-12.92l-11.33 34.01Z" fill="#FFF"></path></svg>
