<?xml version="1.0" encoding="UTF-8" standalone="no"?>
<!-- Created with Inkscape (http://www.inkscape.org/) -->

<svg
   width="512"
   height="512"
   viewBox="0 0 512 512"
   version="1.1"
   id="svg1"
   inkscape:version="1.3.2 (091e20ef0f, 2023-11-25, custom)"
   sodipodi:docname="rssbridge-short.svg"
   xmlns:inkscape="http://www.inkscape.org/namespaces/inkscape"
   xmlns:sodipodi="http://sodipodi.sourceforge.net/DTD/sodipodi-0.dtd"
   xmlns="http://www.w3.org/2000/svg"
   xmlns:svg="http://www.w3.org/2000/svg">
  <sodipodi:namedview
     id="namedview1"
     pagecolor="#505050"
     bordercolor="#eeeeee"
     borderopacity="1"
     inkscape:showpageshadow="0"
     inkscape:pageopacity="0"
     inkscape:pagecheckerboard="0"
     inkscape:deskcolor="#d1d1d1"
     inkscape:document-units="px"
     inkscape:zoom="1.2084344"
     inkscape:cx="138.19533"
     inkscape:cy="271.83932"
     inkscape:window-width="1896"
     inkscape:window-height="1012"
     inkscape:window-x="0"
     inkscape:window-y="0"
     inkscape:window-maximized="1"
     inkscape:current-layer="layer1" />
  <defs
     id="defs1" />
  <g
     inkscape:label="Calque 1"
     inkscape:groupmode="layer"
     id="layer1">
    <rect
       y="34.344826"
       x="34.344826"
       height="443.31033"
       width="443.31033"
       id="rect1480"
       style="fill:none;fill-opacity:1;stroke:#1182db;stroke-width:30.369;stroke-linecap:butt;stroke-linejoin:miter;stroke-miterlimit:4;stroke-dasharray:none;stroke-dashoffset:0;stroke-opacity:1"
       ry="76.887505" />
    <g
       id="g1490"
       transform="matrix(4.3096065,0,0,4.3096065,4939.3496,-9393.3916)"
       style="fill:#1182db;fill-opacity:1;stroke-width:2.37724">
      <g
         style="fill:#1182db;fill-opacity:1;stroke-width:3.88193"
         transform="matrix(0.61238525,0,0,0.61238525,-1199.6119,2184.4357)"
         id="g1488">
        <path
           style="opacity:1;vector-effect:none;fill:#1182db;fill-opacity:1;stroke:none;stroke-width:29.3437;stroke-linecap:butt;stroke-linejoin:miter;stroke-miterlimit:4;stroke-dasharray:58.6875, 117.375;stroke-dashoffset:0;stroke-opacity:1"
           d="m 541.51249,525.34565 c -10.41315,-4.00956 -14.78996,-6.8636 -21.21485,-13.83378 -9.51065,-10.31784 -12.16446,-17.61997 -12.22497,-33.63782 -0.0451,-11.93786 0.4192,-14.53892 3.85734,-21.60913 4.60063,-9.46079 15.51168,-20.18661 24.98644,-24.56227 5.4253,-2.50553 9.38434,-3.11239 20.31033,-3.11325 11.66691,-9.2e-4 14.67404,0.52181 21.42857,3.7249 9.99443,4.73949 19.32279,14.0885 24.07789,24.13117 5.25545,11.09941 5.95363,27.48145 1.65888,38.9238 -4.02442,10.72212 -14.87839,22.6043 -25.31059,27.7083 -10.28725,5.03309 -27.6637,6.08212 -37.56904,2.26808 z"
           id="path1482"
           inkscape:connector-curvature="0"
           transform="scale(0.26458333)" />
        <path
           style="opacity:1;vector-effect:none;fill:#1182db;fill-opacity:1;stroke:none;stroke-width:29.3437;stroke-linecap:butt;stroke-linejoin:miter;stroke-miterlimit:4;stroke-dasharray:58.6875, 117.375;stroke-dashoffset:0;stroke-opacity:1"
           d="m 683.89345,526.92166 c -0.52382,-0.5238 -0.96246,-2.93451 -0.97477,-5.35714 -0.0352,-6.92667 -5.18979,-29.62173 -10.01089,-44.07679 C 648.75042,405.05698 592.21848,359.91722 516.2625,352.40923 l -9.75001,-0.96376 0.31432,-35.60003 c 0.17288,-19.58002 0.82532,-36.11103 1.44987,-36.73558 1.81708,-1.81708 35.29533,1.40642 53.50247,5.15156 47.00787,9.66933 86.72265,29.83563 117.9638,59.89942 22.60831,21.7563 38.25173,44.31995 51.33931,74.05042 11.72719,26.64016 21.65262,66.64856 24.10447,97.16279 l 1.00439,12.5 h -35.67264 c -19.61996,0 -36.10123,-0.42858 -36.62503,-0.95239 z"
           id="path1484"
           inkscape:connector-curvature="0"
           transform="scale(0.26458333)" />
        <path
           style="opacity:1;vector-effect:none;fill:#1182db;fill-opacity:1;stroke:none;stroke-width:29.3437;stroke-linecap:butt;stroke-linejoin:miter;stroke-miterlimit:4;stroke-dasharray:58.6875, 117.375;stroke-dashoffset:0;stroke-opacity:1"
           d="m 823.42333,526.81959 -8.80344,-0.50396 -0.79067,-6.72078 c -0.43486,-3.69645 -1.19383,-10.89938 -1.68659,-16.00652 -4.34718,-45.05596 -23.32007,-100.71198 -47.77185,-140.13638 -22.38739,-36.09589 -54.4142,-68.56278 -89.46856,-90.69793 -41.25297,-26.04928 -95.0629,-43.89344 -148.38973,-49.20819 -9.42857,-0.93969 -17.94643,-1.93722 -18.92857,-2.21675 -1.37004,-0.38992 -1.78572,-9.19669 -1.78572,-37.83338 v -37.32517 l 15.35715,0.93347 c 45.68823,2.77713 80.32407,8.98439 117.5,21.05774 91.16555,29.60718 160.46184,87.77122 202.6182,170.06818 24.63558,48.09321 41.9844,114.7859 45.52317,175.00127 l 0.86054,14.64286 -27.71524,-0.27526 c -15.24339,-0.15139 -31.6768,-0.50203 -36.51869,-0.7792 z"
           id="path1486"
           inkscape:connector-curvature="0"
           transform="scale(0.26458333)" />
      </g>
    </g>
  </g>
</svg>
