<?xml version="1.0" encoding="UTF-8" standalone="no"?>
<!-- Created with Inkscape (http://www.inkscape.org/) -->

<svg
   width="512"
   height="512"
   viewBox="0 0 512 512"
   version="1.1"
   id="svg1"
   inkscape:version="1.3.2 (091e20ef0f, 2023-11-25, custom)"
   sodipodi:docname="shoelace.svg"
   xmlns:inkscape="http://www.inkscape.org/namespaces/inkscape"
   xmlns:sodipodi="http://sodipodi.sourceforge.net/DTD/sodipodi-0.dtd"
   xmlns:xlink="http://www.w3.org/1999/xlink"
   xmlns="http://www.w3.org/2000/svg"
   xmlns:svg="http://www.w3.org/2000/svg">
  <sodipodi:namedview
     id="namedview1"
     pagecolor="#505050"
     bordercolor="#eeeeee"
     borderopacity="1"
     inkscape:showpageshadow="0"
     inkscape:pageopacity="0"
     inkscape:pagecheckerboard="0"
     inkscape:deskcolor="#d1d1d1"
     inkscape:document-units="px"
     inkscape:zoom="1.1621094"
     inkscape:cx="200.06723"
     inkscape:cy="332.58487"
     inkscape:window-width="1916"
     inkscape:window-height="1052"
     inkscape:window-x="0"
     inkscape:window-y="0"
     inkscape:window-maximized="1"
     inkscape:current-layer="svg1" />
  <defs
     id="defs1">
    <linearGradient
       xlink:href="#linearGradient47"
       id="linearGradient48"
       x1="85.638252"
       y1="78.116249"
       x2="85.638252"
       y2="83.870674"
       gradientUnits="userSpaceOnUse" />
    <linearGradient
       id="linearGradient47">
      <stop
         style="stop-color:#ffffff;stop-opacity:1;"
         offset="0.19890325"
         id="stop47" />
      <stop
         style="stop-color:#7c7c7c;stop-opacity:1;"
         offset="1"
         id="stop49" />
    </linearGradient>
    <clipPath
       clipPathUnits="userSpaceOnUse"
       id="clipPath51">
      <path
         style="font-variation-settings:'wght' 700;opacity:1;fill:#000000;fill-opacity:1;fill-rule:evenodd;stroke:none;stroke-width:0.899999;stroke-linejoin:round;stroke-dasharray:none;stroke-opacity:1"
         d="m 87.866768,83.870668 v -5.783207 h -3.580583 v 5.283745 l 1.352069,0.499462 z"
         id="path52" />
    </clipPath>
    <linearGradient
       xlink:href="#linearGradient57"
       id="linearGradient55"
       gradientUnits="userSpaceOnUse"
       x1="91.970032"
       y1="84.721306"
       x2="82.59317"
       y2="84.721306" />
    <linearGradient
       id="linearGradient57">
      <stop
         style="stop-color:#ffffff;stop-opacity:1;"
         offset="0"
         id="stop56" />
      <stop
         style="stop-color:#5c5c5c;stop-opacity:1;"
         offset="0.55303198"
         id="stop57" />
    </linearGradient>
    <clipPath
       clipPathUnits="userSpaceOnUse"
       id="clipPath58">
      <path
         style="font-variation-settings:'wght' 700;display:inline;opacity:1;fill:#000000;fill-opacity:1;fill-rule:evenodd;stroke:none;stroke-width:0.899999;stroke-linejoin:round;stroke-dasharray:none;stroke-opacity:1"
         d="m 90.095287,83.870665 c 0,0 -0.753978,0.850641 -2.228519,0.850641 -1.464842,0 0,0 0,0 0,0 3.82864,0.724948 4.788207,-0.526333 0.959567,-1.251281 0.813879,-1.504839 0.813879,-1.504839 l 0.271097,-2.029831 -1.314584,-0.482689 -1.166765,3.575171 z"
         id="path59" />
    </clipPath>
    <filter
       inkscape:collect="always"
       style="color-interpolation-filters:sRGB"
       id="filter5"
       x="-0.056729909"
       y="-0.089699289"
       width="1.1134598"
       height="1.1793986">
      <feGaussianBlur
         inkscape:collect="always"
         stdDeviation="6.6043074"
         id="feGaussianBlur5" />
    </filter>
  </defs>
  <g
     inkscape:label="Calque 1"
     inkscape:groupmode="layer"
     id="layer1">
    <g
       id="g5"
       transform="matrix(1.6243845,0,0,1.6243845,-105.08969,-46.196445)"
       inkscape:label="Shadow layer"
       style="fill:#1d1d1d;fill-opacity:1;filter:url(#filter5)">
      <g
         id="g4"
         transform="matrix(26.636935,0,0,26.636935,-2117.4357,-1982.3258)"
         style="fill:#1d1d1d;fill-opacity:1">
        <path
           style="color:#000000;display:inline;opacity:1;mix-blend-mode:normal;fill:#1d1d1d;fill-opacity:1;fill-rule:evenodd;stroke-linejoin:round;-inkscape-stroke:none"
           d="m 87.866771,78.087468 c -1.741367,0 -3.378906,1.411901 -3.378906,3.341797 0,1.011888 0.471127,1.843077 1.15039,2.441406 H 84.96638 c -1.551846,0 -1.61036,-1.355124 -1.828812,-1.355124 l 4.92e-4,-1.223 c 0,-0.09119 -0.4,-0.09119 -0.4,0 v 1.223 c -0.317958,0 -0.317958,2.20576 2.199024,2.20576 h 2.929687 2.949077 c 1.979634,0 2.49768,-2.205762 2.17972,-2.205765 v -1.222995 c 0,-0.09118 -0.4,-0.09118 -0.4,0 v 1.222995 c -0.218046,5e-6 -0.910255,1.355124 -1.801063,1.355124 h -0.699218 c 0.679264,-0.598329 1.15039,-1.429518 1.15039,-2.441406 0,-1.929896 -1.637538,-3.341797 -3.378906,-3.341797 z m 0,0.90039 c 1.253193,0 2.478516,1.024766 2.478516,2.441407 0,1.417679 -1.21858,2.441406 -2.478516,2.441406 -1.259936,0 -2.478515,-1.023725 -2.478516,-2.441406 0,-1.416642 1.225325,-2.441406 2.478516,-2.441407 z"
           id="path2" />
        <path
           style="color:#000000;display:inline;opacity:1;mix-blend-mode:normal;fill:#1d1d1d;fill-opacity:1;fill-rule:evenodd;stroke-linejoin:round;-inkscape-stroke:none"
           d="m 87.866771,78.087468 c -1.741367,0 -3.378906,1.411901 -3.378906,3.341797 0,1.011888 0.471127,1.843077 1.15039,2.441406 H 84.96638 c -1.551846,0 -1.61036,-1.355124 -1.828812,-1.355124 l 4.92e-4,-1.223 c 0,-0.09119 -0.4,-0.09119 -0.4,0 v 1.223 c -0.317958,0 -0.317958,2.20576 2.199024,2.20576 h 2.929687 2.949077 c 1.979634,0 2.49768,-2.205762 2.17972,-2.205765 v -1.222995 c 0,-0.09118 -0.4,-0.09118 -0.4,0 v 1.222995 c -0.218046,5e-6 -0.910255,1.355124 -1.801063,1.355124 h -0.699218 c 0.679264,-0.598329 1.15039,-1.429518 1.15039,-2.441406 0,-1.929896 -1.637538,-3.341797 -3.378906,-3.341797 z m 0,0.90039 c 1.253193,0 2.478516,1.024766 2.478516,2.441407 0,1.417679 -1.21858,2.441406 -2.478516,2.441406 -1.259936,0 -2.478515,-1.023725 -2.478516,-2.441406 0,-1.416642 1.225325,-2.441406 2.478516,-2.441407 z"
           id="path3"
           clip-path="url(#clipPath51)" />
        <path
           style="color:#000000;display:inline;opacity:1;mix-blend-mode:normal;fill:#1d1d1d;fill-opacity:1;fill-rule:evenodd;stroke-linejoin:round;-inkscape-stroke:none"
           d="m 87.866771,78.087468 c -1.741367,0 -3.378906,1.411901 -3.378906,3.341797 0,1.011888 0.471127,1.843077 1.15039,2.441406 H 84.96638 c -1.551846,0 -1.61036,-1.355124 -1.828812,-1.355124 l 4.92e-4,-1.223 c 0,-0.09119 -0.4,-0.09119 -0.4,0 v 1.223 c -0.317958,0 -0.317958,2.20576 2.199024,2.20576 h 2.929687 2.949077 c 1.979634,0 2.49768,-2.205762 2.17972,-2.205765 v -1.222995 c 0,-0.09118 -0.4,-0.09118 -0.4,0 v 1.222995 c -0.218046,5e-6 -0.910255,1.355124 -1.801063,1.355124 h -0.699218 c 0.679264,-0.598329 1.15039,-1.429518 1.15039,-2.441406 0,-1.929896 -1.637538,-3.341797 -3.378906,-3.341797 z m 0,0.90039 c 1.253193,0 2.478516,1.024766 2.478516,2.441407 0,1.417679 -1.21858,2.441406 -2.478516,2.441406 -1.259936,0 -2.478515,-1.023725 -2.478516,-2.441406 0,-1.416642 1.225325,-2.441406 2.478516,-2.441407 z"
           id="path4"
           clip-path="url(#clipPath58)" />
      </g>
    </g>
    <g
       id="layer2"
       transform="matrix(1.6243845,0,0,1.6243845,-105.08969,-46.196445)">
      <g
         id="g2"
         transform="matrix(26.636935,0,0,26.636935,-2117.4357,-1982.3258)">
        <path
           style="color:#000000;display:inline;opacity:1;mix-blend-mode:normal;fill:#ffffff;fill-opacity:1;fill-rule:evenodd;stroke-linejoin:round;-inkscape-stroke:none"
           d="m 87.866771,78.087468 c -1.741367,0 -3.378906,1.411901 -3.378906,3.341797 0,1.011888 0.471127,1.843077 1.15039,2.441406 H 84.96638 c -1.551846,0 -1.61036,-1.355124 -1.828812,-1.355124 l 4.92e-4,-1.223 c 0,-0.09119 -0.4,-0.09119 -0.4,0 v 1.223 c -0.317958,0 -0.317958,2.20576 2.199024,2.20576 h 2.929687 2.949077 c 1.979634,0 2.49768,-2.205762 2.17972,-2.205765 v -1.222995 c 0,-0.09118 -0.4,-0.09118 -0.4,0 v 1.222995 c -0.218046,5e-6 -0.910255,1.355124 -1.801063,1.355124 h -0.699218 c 0.679264,-0.598329 1.15039,-1.429518 1.15039,-2.441406 0,-1.929896 -1.637538,-3.341797 -3.378906,-3.341797 z m 0,0.90039 c 1.253193,0 2.478516,1.024766 2.478516,2.441407 0,1.417679 -1.21858,2.441406 -2.478516,2.441406 -1.259936,0 -2.478515,-1.023725 -2.478516,-2.441406 0,-1.416642 1.225325,-2.441406 2.478516,-2.441407 z"
           id="path18" />
        <path
           style="color:#000000;display:inline;opacity:1;mix-blend-mode:normal;fill:url(#linearGradient48);fill-opacity:1;fill-rule:evenodd;stroke-linejoin:round;-inkscape-stroke:none"
           d="m 87.866771,78.087468 c -1.741367,0 -3.378906,1.411901 -3.378906,3.341797 0,1.011888 0.471127,1.843077 1.15039,2.441406 H 84.96638 c -1.551846,0 -1.61036,-1.355124 -1.828812,-1.355124 l 4.92e-4,-1.223 c 0,-0.09119 -0.4,-0.09119 -0.4,0 v 1.223 c -0.317958,0 -0.317958,2.20576 2.199024,2.20576 h 2.929687 2.949077 c 1.979634,0 2.49768,-2.205762 2.17972,-2.205765 v -1.222995 c 0,-0.09118 -0.4,-0.09118 -0.4,0 v 1.222995 c -0.218046,5e-6 -0.910255,1.355124 -1.801063,1.355124 h -0.699218 c 0.679264,-0.598329 1.15039,-1.429518 1.15039,-2.441406 0,-1.929896 -1.637538,-3.341797 -3.378906,-3.341797 z m 0,0.90039 c 1.253193,0 2.478516,1.024766 2.478516,2.441407 0,1.417679 -1.21858,2.441406 -2.478516,2.441406 -1.259936,0 -2.478515,-1.023725 -2.478516,-2.441406 0,-1.416642 1.225325,-2.441406 2.478516,-2.441407 z"
           id="path47"
           clip-path="url(#clipPath51)" />
        <path
           style="color:#000000;display:inline;opacity:1;mix-blend-mode:normal;fill:url(#linearGradient55);fill-opacity:1;fill-rule:evenodd;stroke-linejoin:round;-inkscape-stroke:none"
           d="m 87.866771,78.087468 c -1.741367,0 -3.378906,1.411901 -3.378906,3.341797 0,1.011888 0.471127,1.843077 1.15039,2.441406 H 84.96638 c -1.551846,0 -1.61036,-1.355124 -1.828812,-1.355124 l 4.92e-4,-1.223 c 0,-0.09119 -0.4,-0.09119 -0.4,0 v 1.223 c -0.317958,0 -0.317958,2.20576 2.199024,2.20576 h 2.929687 2.949077 c 1.979634,0 2.49768,-2.205762 2.17972,-2.205765 v -1.222995 c 0,-0.09118 -0.4,-0.09118 -0.4,0 v 1.222995 c -0.218046,5e-6 -0.910255,1.355124 -1.801063,1.355124 h -0.699218 c 0.679264,-0.598329 1.15039,-1.429518 1.15039,-2.441406 0,-1.929896 -1.637538,-3.341797 -3.378906,-3.341797 z m 0,0.90039 c 1.253193,0 2.478516,1.024766 2.478516,2.441407 0,1.417679 -1.21858,2.441406 -2.478516,2.441406 -1.259936,0 -2.478515,-1.023725 -2.478516,-2.441406 0,-1.416642 1.225325,-2.441406 2.478516,-2.441407 z"
           id="path54"
           clip-path="url(#clipPath58)" />
      </g>
    </g>
  </g>
</svg>
