<svg width="384" height="384" viewBox="0 0 384 384" fill="none" xmlns="http://www.w3.org/2000/svg">
<path d="M226.93 287.17H209.43V253.45H213.38V283.6H226.93V287.17Z" fill="#BE1E2D"/>
<path d="M241.65 287.74C238.09 287.74 235.25 286.62 233.13 284.37C231.01 282.12 229.94 279.14 229.94 275.42C229.94 271.37 231.05 268.22 233.26 265.94C235.47 263.67 238.46 262.53 242.22 262.53C245.81 262.53 248.61 263.64 250.63 265.85C252.64 268.06 253.65 271.13 253.65 275.05C253.65 278.89 252.56 281.97 250.39 284.28C248.21 286.58 245.3 287.74 241.65 287.74ZM241.93 265.77C239.45 265.77 237.49 266.61 236.05 268.3C234.61 269.99 233.89 272.31 233.89 275.27C233.89 278.12 234.62 280.37 236.08 282.02C237.54 283.67 239.49 284.49 241.94 284.49C244.43 284.49 246.35 283.68 247.69 282.07C249.03 280.46 249.7 278.16 249.7 275.18C249.7 272.17 249.03 269.85 247.69 268.22C246.34 266.59 244.42 265.77 241.93 265.77Z" fill="#BE1E2D"/>
<path d="M280.36 285.25C280.36 294.09 276.13 298.51 267.66 298.51C264.68 298.51 262.08 297.95 259.85 296.82V292.96C262.56 294.47 265.15 295.22 267.61 295.22C273.54 295.22 276.5 292.07 276.5 285.77V283.14H276.41C274.58 286.21 271.82 287.75 268.13 287.75C265.14 287.75 262.72 286.68 260.9 284.54C259.07 282.4 258.16 279.53 258.16 275.92C258.16 271.83 259.14 268.57 261.11 266.16C263.08 263.75 265.77 262.54 269.19 262.54C272.44 262.54 274.84 263.84 276.41 266.44H276.5V263.1H280.36V285.25ZM276.5 276.29V272.74C276.5 270.83 275.85 269.19 274.56 267.82C273.27 266.46 271.66 265.77 269.73 265.77C267.35 265.77 265.48 266.64 264.13 268.37C262.78 270.1 262.11 272.53 262.11 275.65C262.11 278.33 262.76 280.48 264.05 282.08C265.34 283.69 267.06 284.49 269.19 284.49C271.35 284.49 273.11 283.72 274.47 282.19C275.82 280.65 276.5 278.69 276.5 276.29Z" fill="#BE1E2D"/>
<path d="M290.14 256.98C289.45 256.98 288.86 256.74 288.38 256.27C287.89 255.8 287.65 255.2 287.65 254.48C287.65 253.76 287.89 253.16 288.38 252.68C288.87 252.2 289.45 251.96 290.14 251.96C290.85 251.96 291.45 252.2 291.94 252.68C292.43 253.16 292.68 253.76 292.68 254.48C292.68 255.17 292.43 255.76 291.94 256.24C291.44 256.74 290.84 256.98 290.14 256.98ZM292.02 287.17H288.16V263.09H292.02V287.17Z" fill="#BE1E2D"/>
<path d="M319.82 287.17H315.96V273.44C315.96 268.33 314.09 265.77 310.36 265.77C308.43 265.77 306.84 266.5 305.57 267.95C304.31 269.4 303.68 271.23 303.68 273.44V287.17H299.82V263.09H303.68V267.09H303.77C305.59 264.05 308.22 262.53 311.67 262.53C314.3 262.53 316.32 263.38 317.71 265.08C319.1 266.78 319.8 269.24 319.8 272.45V287.17H319.82Z" fill="#BE1E2D"/>
<path d="M63.95 285.81V281.15C64.48 281.62 65.12 282.04 65.87 282.42C66.61 282.8 67.4 283.11 68.22 283.37C69.04 283.63 69.87 283.83 70.7 283.97C71.53 284.11 72.3 284.18 73 284.18C75.43 284.18 77.24 283.73 78.44 282.83C79.64 281.93 80.24 280.63 80.24 278.94C80.24 278.03 80.04 277.24 79.64 276.56C79.24 275.89 78.69 275.27 77.98 274.71C77.27 274.15 76.44 273.62 75.48 273.11C74.52 272.6 73.48 272.06 72.36 271.5C71.18 270.9 70.09 270.3 69.07 269.69C68.05 269.08 67.17 268.4 66.41 267.67C65.66 266.93 65.07 266.1 64.63 265.17C64.2 264.24 63.98 263.14 63.98 261.89C63.98 260.35 64.32 259.02 64.99 257.88C65.66 256.74 66.55 255.81 67.65 255.07C68.75 254.33 70 253.78 71.4 253.42C72.8 253.06 74.23 252.88 75.69 252.88C79.01 252.88 81.44 253.28 82.96 254.08V258.52C80.97 257.14 78.41 256.45 75.29 256.45C74.43 256.45 73.57 256.54 72.7 256.72C71.84 256.9 71.07 257.19 70.4 257.6C69.73 258.01 69.18 258.53 68.75 259.18C68.33 259.82 68.12 260.61 68.12 261.53C68.12 262.39 68.28 263.14 68.6 263.76C68.92 264.39 69.4 264.96 70.02 265.48C70.65 266 71.41 266.5 72.31 266.99C73.21 267.48 74.25 268.01 75.43 268.59C76.64 269.19 77.78 269.81 78.86 270.47C79.94 271.13 80.89 271.86 81.71 272.66C82.52 273.46 83.17 274.35 83.65 275.32C84.13 276.29 84.37 277.41 84.37 278.66C84.37 280.32 84.04 281.73 83.39 282.88C82.74 284.03 81.86 284.97 80.76 285.69C79.65 286.41 78.38 286.93 76.94 287.25C75.5 287.57 73.98 287.73 72.38 287.73C71.85 287.73 71.19 287.69 70.4 287.6C69.62 287.51 68.82 287.39 68 287.22C67.18 287.06 66.41 286.85 65.68 286.61C64.97 286.38 64.39 286.11 63.95 285.81ZM92.57 256.98C91.88 256.98 91.29 256.74 90.81 256.27C90.32 255.8 90.08 255.2 90.08 254.48C90.08 253.76 90.32 253.16 90.81 252.68C91.3 252.2 91.88 251.96 92.57 251.96C93.28 251.96 93.88 252.2 94.37 252.68C94.86 253.16 95.11 253.76 95.11 254.48C95.11 255.17 94.86 255.76 94.37 256.24C93.88 256.74 93.28 256.98 92.57 256.98ZM94.45 287.17H90.59V263.09H94.45V287.17ZM136.45 287.17H132.59V273.34C132.59 270.67 132.18 268.75 131.36 267.55C130.54 266.36 129.15 265.76 127.21 265.76C125.56 265.76 124.16 266.51 123.01 268.02C121.86 269.53 121.28 271.33 121.28 273.43V287.16H117.42V272.86C117.42 268.13 115.59 265.76 111.94 265.76C110.25 265.76 108.85 266.47 107.75 267.89C106.65 269.31 106.1 271.16 106.1 273.43V287.16H102.24V263.08H106.1V266.89H106.19C107.9 263.97 110.39 262.52 113.67 262.52C115.32 262.52 116.75 262.98 117.97 263.9C119.19 264.82 120.03 266.02 120.49 267.51C122.28 264.19 124.94 262.52 128.49 262.52C133.79 262.52 136.44 265.79 136.44 272.33V287.17H136.45ZM147.7 283.69H147.61V298.25H143.75V263.09H147.61V267.32H147.7C149.6 264.12 152.37 262.52 156.02 262.52C159.12 262.52 161.55 263.6 163.29 265.75C165.03 267.91 165.9 270.79 165.9 274.42C165.9 278.45 164.92 281.67 162.96 284.1C161 286.52 158.32 287.73 154.92 287.73C151.8 287.74 149.39 286.39 147.7 283.69ZM147.6 273.98V277.34C147.6 279.33 148.25 281.02 149.54 282.41C150.83 283.8 152.48 284.49 154.47 284.49C156.81 284.49 158.64 283.6 159.96 281.81C161.28 280.02 161.95 277.54 161.95 274.36C161.95 271.68 161.33 269.58 160.09 268.06C158.85 266.54 157.17 265.78 155.06 265.78C152.82 265.78 151.02 266.56 149.65 268.12C148.28 269.67 147.6 271.63 147.6 273.98ZM175.92 287.17H172.06V251.52H175.92V287.17ZM203.08 276.1H186.08C186.14 278.78 186.86 280.85 188.24 282.31C189.62 283.77 191.52 284.5 193.93 284.5C196.64 284.5 199.13 283.61 201.41 281.82V285.44C199.29 286.98 196.49 287.74 193.01 287.74C189.61 287.74 186.93 286.65 184.99 284.46C183.05 282.27 182.07 279.2 182.07 275.23C182.07 271.48 183.13 268.43 185.26 266.07C187.38 263.71 190.02 262.53 193.17 262.53C196.32 262.53 198.76 263.55 200.48 265.59C202.2 267.63 203.07 270.46 203.07 274.08V276.1H203.08ZM199.13 272.83C199.11 270.6 198.58 268.87 197.52 267.63C196.46 266.39 194.99 265.77 193.11 265.77C191.29 265.77 189.75 266.42 188.48 267.72C187.21 269.02 186.43 270.72 186.13 272.82H199.13V272.83ZM128.02 85L127.98 85.04H128.06L128.02 85ZM313.85 85.04H127.98L125.63 87.47L125.22 87.92C123.43 89.79 121.57 91.57 119.7 93.28C105.46 106.39 88.33 116.29 69.74 121.16C69.21 121.32 68.68 121.44 68.16 121.61L65.81 122.18L65.28 124.53C65.08 125.38 64.91 126.23 64.75 127.13C63.61 133.14 63 139.3 63 145.43C63 165.48 69.05 184.71 80.49 201.07C90.8 215.8 104.76 227.29 121.07 234.43C121.48 234.63 121.92 234.84 122.37 235C123.34 235.45 124.32 235.81 125.29 236.22L126.47 236.67L126.63 236.71L126.71 236.67C126.79 236.71 126.91 236.71 126.99 236.71H313.84C317.9 236.71 321.14 233.42 321.14 229.41V92.31C321.15 88.29 317.91 85.04 313.85 85.04ZM301.23 96.69L223.43 164.5C221.81 165.88 219.45 165.88 217.87 164.46L192.51 141.98C192.39 136.54 191.82 131.14 190.76 125.87C190.68 125.42 190.6 124.98 190.52 124.49L189.99 122.14L187.64 121.53C187.07 121.41 186.5 121.25 185.94 121.12C173.03 117.67 160.82 111.79 149.82 104.12L141.42 96.69H301.23ZM196.52 160.69L190.15 166.33C190.88 163.12 191.45 159.88 191.85 156.55L196.52 160.69ZM126.76 228.42C124.37 227.45 122.01 226.35 119.7 225.17C90.11 210.03 70.8 179.11 70.8 145.42C70.8 139.74 71.33 134.06 72.42 128.54C89.75 123.87 105.82 115.63 119.7 104.27C122.58 101.96 125.34 99.48 128.02 96.88C141.17 109.66 156.79 119.4 173.92 125.49C177 126.63 180.13 127.6 183.34 128.45C183.71 130.48 184.03 132.55 184.23 134.62C184.6 137.91 184.8 141.28 184.8 144.64C184.8 146.47 184.76 148.29 184.6 150.12C184.07 159.13 182.17 167.9 179.04 176.13C170.1 199.81 151.27 219.21 126.76 228.42ZM149.45 225.42C163.21 216.17 174.33 203.63 181.79 189.06L205.13 168.44L217.79 179.76C219.37 181.18 221.81 181.18 223.39 179.76L236.3 168.32L301.07 225.34L149.45 225.42ZM245.1 160.65L309.91 103.06L310.03 217.91L245.1 160.65ZM144.25 206.79C147.33 204.52 150.26 201.96 152.85 199.2L144.25 206.79ZM173.15 140.03C172.95 138.41 172.7 136.78 172.42 135.16C169.86 134.47 167.35 133.66 164.87 132.73C164.87 132.73 164.83 132.73 164.83 132.69C164.18 132.49 163.57 132.2 162.92 131.96C161.5 131.39 160.08 130.78 158.66 130.09C157.69 129.64 156.67 129.2 155.7 128.67C155.01 128.35 154.28 127.98 153.59 127.57C151.36 126.39 149.17 125.09 147.02 123.71C145.68 122.9 144.38 122.01 143.12 121.11C143 121.07 142.92 120.99 142.84 120.91C141.46 119.98 140.12 118.96 138.78 117.95C136.14 115.92 133.59 113.77 131.11 111.5C130.05 110.57 129 109.59 127.99 108.58C125.35 111.14 122.59 113.61 119.71 115.97C108.91 124.74 96.58 131.68 83.31 135.25C82.46 139.71 82.01 144.26 82.01 148.85C82.01 154.33 82.66 159.73 83.84 164.96C88.47 185.09 101.57 202.95 119.72 212.89C122.07 214.19 124.47 215.32 126.98 216.34C128.44 215.77 129.9 215.16 131.32 214.51C131.36 214.51 131.4 214.47 131.4 214.47C132.58 213.94 133.75 213.37 134.89 212.77C135.95 212.24 136.96 211.67 137.97 211.02C138.29 210.86 138.62 210.65 138.94 210.45C139.47 210.13 140 209.8 140.48 209.48C140.6 209.4 140.72 209.36 140.8 209.24C141.73 208.67 142.59 208.06 143.44 207.41C143.72 207.25 144.01 207.04 144.25 206.8L152.85 199.21C152.93 199.21 152.93 199.21 152.93 199.17C161.45 190.32 167.74 179.32 170.99 167.35C172.69 161.18 173.59 154.73 173.59 148.19C173.59 145.47 173.43 142.75 173.15 140.03ZM131.22 181.75L124.6 188.37H124.56L97.17 160.98L105.57 152.5L124.6 171.53L131.22 164.91L154.31 141.78L162.75 150.22L131.22 181.75Z" fill="url(#paint0_linear_1_51)"/>
<defs>
<linearGradient id="paint0_linear_1_51" x1="63.0035" y1="191.627" x2="321.153" y2="191.627" gradientUnits="userSpaceOnUse">
<stop stop-color="#ED2E7C"/>
<stop offset="1" stop-color="#A8288F"/>
</linearGradient>
</defs>
</svg>
