<?xml version="1.0" encoding="utf-8"?>
<!-- Generator: Adobe Illustrator 25.1.0, SVG Export Plug-In . SVG Version: 6.00 Build 0)  -->
<!DOCTYPE svg PUBLIC "-//W3C//DTD SVG 1.1//EN" "http://www.w3.org/Graphics/SVG/1.1/DTD/svg11.dtd" [
	<!ENTITY ns_extend "http://ns.adobe.com/Extensibility/1.0/">
	<!ENTITY ns_ai "http://ns.adobe.com/AdobeIllustrator/10.0/">
	<!ENTITY ns_graphs "http://ns.adobe.com/Graphs/1.0/">
	<!ENTITY ns_vars "http://ns.adobe.com/Variables/1.0/">
	<!ENTITY ns_imrep "http://ns.adobe.com/ImageReplacement/1.0/">
	<!ENTITY ns_sfw "http://ns.adobe.com/SaveForWeb/1.0/">
	<!ENTITY ns_custom "http://ns.adobe.com/GenericCustomNamespace/1.0/">
	<!ENTITY ns_adobe_xpath "http://ns.adobe.com/XPath/1.0/">
]>
<svg version="1.1" id="Layer_1" xmlns:x="&ns_extend;" xmlns:i="&ns_ai;" xmlns:graph="&ns_graphs;"
	 xmlns="http://www.w3.org/2000/svg" xmlns:xlink="http://www.w3.org/1999/xlink" x="0px" y="0px" viewBox="0 0 600 486.41"
	 style="enable-background:new 0 0 600 486.41;" xml:space="preserve">
<style type="text/css">
	.st0{fill:#FFFFFF;}
	.st1{opacity:0.7;}
	.st2{filter:url(#Adobe_OpacityMaskFilter);}
	.st3{mask:url(#SVGID_3_);}
	.st4{filter:url(#Adobe_OpacityMaskFilter_1_);}
	.st5{mask:url(#SVGID_6_);}
	.st6{fill:#F6F6F6;}
	.st7{filter:url(#Adobe_OpacityMaskFilter_2_);}
	.st8{mask:url(#SVGID_9_);fill:#FFFFFF;}
	.st9{filter:url(#Adobe_OpacityMaskFilter_3_);}
	.st10{mask:url(#SVGID_12_);fill:#FFFFFF;}
	.st11{fill:#0F2C3E;}
	.st12{filter:url(#Adobe_OpacityMaskFilter_4_);}
	.st13{mask:url(#SVGID_13_);fill:#FFFFFF;}
	.st14{filter:url(#Adobe_OpacityMaskFilter_5_);}
	.st15{mask:url(#SVGID_15_);fill:#FFFFFF;}
	.st16{fill:#A4B0B8;}
	.st17{opacity:0.4;fill:#A4B0B8;}
	.st18{fill:none;}
	.st19{opacity:0.2;fill:#A4B0B8;}
	.st20{fill:#E5EDF0;}
	.st21{fill:none;stroke:#0F2C3E;stroke-width:2;stroke-miterlimit:10;}
	.st22{fill:#F4F4F4;}
	.st23{opacity:0.8;fill:url(#SVGID_18_);}
	.st24{fill:#E6E7E5;}
	.st25{fill:#DEAA22;}
	.st26{opacity:0.63;}
	.st27{clip-path:url(#SVGID_21_);}
	.st28{opacity:0.3;}
	.st29{fill:none;stroke:#0D2C3E;stroke-width:0.25;stroke-miterlimit:10;}
	.st30{opacity:0.1;}
	.st31{fill:none;stroke:#000000;stroke-width:2;stroke-miterlimit:10;}
	.st32{fill:#FFFFFF;stroke:#000000;stroke-width:2;stroke-miterlimit:10;}
	.st33{fill:none;stroke:#0F2C3E;stroke-width:2;stroke-miterlimit:10;stroke-dasharray:5.1466,5.1466;}
	.st34{fill:#FFFFFF;stroke:#0F2C3E;stroke-width:2;stroke-miterlimit:10;}
	.st35{fill:none;stroke:#0F2C3E;stroke-width:1.5;stroke-miterlimit:10;}
	.st36{fill:none;stroke:#0F2C3E;stroke-width:1.5;stroke-miterlimit:10;stroke-dasharray:5.1737,5.1737;}
	.st37{fill:#0F2C3E;stroke:#0F2C3E;stroke-width:2;stroke-linecap:round;stroke-miterlimit:10;}
	.st38{fill:none;stroke:#0F2C3E;stroke-width:2;stroke-linecap:round;stroke-miterlimit:10;}
	.st39{opacity:0.48;fill:#0F2C3E;}
	.st40{fill:none;stroke:#0F2C3E;stroke-miterlimit:10;stroke-dasharray:2,2;}
	.st41{fill:none;stroke:#0F2C3E;stroke-width:13;stroke-miterlimit:10;}
	.st42{opacity:0.2;}
	.st43{fill:none;stroke:#0F2C3E;stroke-width:0.25;stroke-miterlimit:10;}
	.st44{opacity:0.21;}
	.st45{clip-path:url(#SVGID_25_);}
	.st46{clip-path:url(#SVGID_27_);}
	.st47{fill:url(#SVGID_28_);}
	.st48{fill:#F0F0F0;}
	.st49{fill:none;stroke:#DEAA22;stroke-width:0.5;stroke-miterlimit:10;}
	.st50{fill:none;stroke:#DEAA22;stroke-width:0.75;stroke-miterlimit:10;}
	.st51{fill:#CED6DD;}
	.st52{fill:none;stroke:#000000;stroke-width:0.5;stroke-miterlimit:10;}
	.st53{clip-path:url(#SVGID_32_);}
	.st54{clip-path:url(#SVGID_34_);}
	.st55{clip-path:url(#SVGID_38_);}
	.st56{clip-path:url(#SVGID_40_);}
	.st57{clip-path:url(#SVGID_44_);}
	.st58{clip-path:url(#SVGID_46_);}
	.st59{clip-path:url(#SVGID_50_);}
	.st60{clip-path:url(#SVGID_52_);}
	.st61{clip-path:url(#SVGID_56_);}
	.st62{clip-path:url(#SVGID_58_);}
	.st63{opacity:0.4;}
	.st64{filter:url(#Adobe_OpacityMaskFilter_6_);}
	.st65{mask:url(#SVGID_63_);}
	.st66{filter:url(#Adobe_OpacityMaskFilter_7_);}
	.st67{mask:url(#SVGID_66_);}
	.st68{clip-path:url(#SVGID_68_);}
	.st69{clip-path:url(#SVGID_70_);}
	.st70{clip-path:url(#SVGID_74_);}
	.st71{clip-path:url(#SVGID_76_);}
	.st72{clip-path:url(#SVGID_80_);}
	.st73{clip-path:url(#SVGID_82_);}
	.st74{opacity:0.45;fill:#C0C3C4;}
	.st75{fill:#DBDFE3;}
	.st76{fill:none;stroke:#0F2C3E;stroke-width:0.5;stroke-miterlimit:10;}
	.st77{fill:#E8AB82;}
	.st78{fill:#F9F8F4;}
</style>
<metadata>
	<sfw  xmlns="&ns_sfw;">
		<slices></slices>
		<sliceSourceBounds  bottomLeftOrigin="true" height="6120.73" width="11766.84" x="-6696.41" y="1124.88"></sliceSourceBounds>
	</sfw>
</metadata>
<ellipse class="st0" cx="254.97" cy="251.73" rx="126.51" ry="131.84"/>
<path class="st74" d="M501.02,198.83c2.08,37.15,1.23,78.61-21.52,110.04c-12.27,16.96-28.17,30.57-46.37,39.57
	c-12.38,6.12-20.33,18.61-20.83,32.41c0,0.08,0,0.17-0.01,0.25c-0.79,10.3-2.78,16.08-5.08,19.72
	c-2.89,4.57-73.64-33.38-76.94-42.31c27.84-19.07,47.02-59.21,47.02-105.64c0-45.38-18.33-84.75-45.15-104.31
	c0.61-6.88,2.35-14.97,8.76-19.47c30.12-21.14,78.07-29.9,102.1-21.09l-0.08,0.77l30.47,14.6l27.28,20.66
	C498.81,162.25,500,180.57,501.02,198.83z M468.52,386.83l31.95-24.23l7.72-8.61c-13.64-1.27-27.03-0.86-40.73,2.58
	c-19.95,5.02-37.03,21.19-38.14,42.3L468.52,386.83z M553.54,390.95c-1.06-9.26-6.1-15.7-12.89-19.85
	c-15.49,20.13-49.74,36.28-90.75,40.35c-6.86,0.68-13.59,0.98-20.14,0.95c4.06,16.6,18.61,33.74,34.98,40.51
	c3.87,2.96,8.46,4.99,13.92,5.62c18.86,2.19,33.91-15.75,46.9-26.81C538,421.11,555.68,409.7,553.54,390.95z M511.34,108.88
	c-21.52-11.71-46.01-18.36-72-18.36c-2.22,0-4.42,0.09-6.62,0.18v-9.76l31.71-5.64v-8.1l-33.95-5.78l-40.93,4.75l-0.62,9.13
	l29.76,5.64l3.01,9.69h-20.48l-36.71,6.11l-33.42,15.52c0,0-4.95,3.68-16.6-5.52c-3.7-2.92-4.05,2.37-8.72,4.3
	c-4.52,1.87-4.91,17.17-7.93,15.97c-13.66-5.45-28.45-8.43-43.9-8.43c-69.35,0-125.57,59.98-125.57,133.97
	c0,73.99,56.22,133.97,125.57,133.97c19.82,0,54.17-14.48,55.22-13.65c46.29,36.52,90.85,37.92,89.8,39.57
	c-7.98,12.54-17.8,24.1-29.48,34.53c-63.07,56.31-166.56,40.44-214.37-27.5c-11.98-17.03-19.57-36.17-24.71-56.16
	c-3.44-13.4-6.53-26.85-11.91-39.56c-2.24-3.28-4.64-6.44-7.23-9.47c-14.24-14.46-29.02-28.7-39.63-45.81
	c3.98-5.17,6.52-12.91,6.52-21.57c0-15.56-8.17-28.17-18.24-28.17c-1.59,0-3.13,0.35-4.6,0.94c-3.19-26.75,1.39-54.15,13.81-78.55
	c18.36-36.06,47.29-60.21,80.71-78.04c14.42-7.7,27.73-17.25,39.53-28.56c16.34-15.66,37.99-25.92,61.05-27.76
	c22.73-1.82,43.2,3.09,64.44,10.69c9.23,3.3,18.11,7.43,27.18,11.12c2.74,1.12,5.61,1.92,8.54,2.36c0.02,0,0.03,0,0.05,0.01
	c8.71-0.75,17.28-2.45,25.95-4c14.96-2.67,29.84-3.19,45.04-1.78c36.99,3.44,69.32,27.42,83.59,61.54
	C508.15,93.71,510.16,101.19,511.34,108.88z M361.41,179.79L180.33,362.6c3.77,2.81,7.71,5.38,11.8,7.75L368.1,192.7
	C366.09,188.26,363.87,183.94,361.41,179.79z M329.13,143.32L147.72,326.46c6.97,11.53,15.65,21.84,25.71,30.56l183.08-184.83
	C348.92,161.15,339.7,151.38,329.13,143.32z"/>
<g>
	<path class="st18" d="M356.52,172.18L173.44,357.02c2.24,1.94,4.52,3.81,6.89,5.58l181.08-182.81
		C359.87,177.19,358.23,174.66,356.52,172.18z"/>
</g>
<g>
	<circle class="st11" cx="182.11" cy="252.16" r="6.78"/>
</g>
<ellipse class="st0" cx="43.77" cy="252.89" rx="37.11" ry="38.12"/>
<polygon class="st25" points="42.76,262.32 37.42,262.32 37.42,271.34 32.1,271.34 32.1,262.32 26.75,262.32 26.75,256.99 
	42.76,256.99 "/>
<polygon class="st11" points="51.26,256.99 51.26,251.67 45.93,251.67 45.92,271.34 51.24,271.34 51.24,262.32 56.59,262.32 
	56.59,256.99 "/>
<polygon class="st11" points="32.09,234.24 32.09,243.27 26.75,243.27 26.75,248.59 32.07,248.59 32.07,253.92 37.4,253.92 
	37.41,234.24 "/>
<polygon class="st25" points="40.59,248.59 56.6,248.59 56.6,243.27 51.25,243.27 51.25,234.24 45.93,234.24 45.93,243.27 
	40.59,243.27 "/>
<g>
	<path class="st11" d="M415.9,173.46c1.79,1.8,4.72,1.8,6.53,0l1.8-1.8c0.7,0.33,1.41,0.62,2.12,0.88v2.54
		c0,2.54,2.07,4.62,4.61,4.62h7.94c2.54,0,4.61-2.07,4.61-4.62v-2.54c0.72-0.26,1.43-0.56,2.12-0.88l1.8,1.79
		c1.79,1.8,4.72,1.8,6.53,0l5.62-5.62c1.79-1.8,1.79-4.72,0-6.53l-1.8-1.79c0.33-0.69,0.62-1.4,0.88-2.12h2.54
		c2.54,0,4.61-2.07,4.61-4.61v-7.94c0-2.54-2.07-4.61-4.61-4.61h-2.54c-0.26-0.72-0.56-1.43-0.88-2.12l1.8-1.8
		c1.79-1.8,1.79-4.72,0-6.52l-5.62-5.61c-1.8-1.8-4.73-1.79-6.52,0l-1.8,1.8c-0.69-0.32-1.4-0.62-2.12-0.88v-2.54
		c0-2.54-2.07-4.61-4.61-4.61h-7.94c-2.54,0-4.61,2.07-4.61,4.61v2.54c-0.72,0.26-1.43,0.56-2.12,0.88l-1.8-1.8
		c-1.8-1.8-4.73-1.8-6.53,0l-5.61,5.61c-0.87,0.87-1.35,2.03-1.35,3.26c0,1.23,0.48,2.39,1.35,3.26l1.8,1.8
		c-0.33,0.7-0.62,1.41-0.88,2.12h-2.54c-2.54,0-4.61,2.07-4.61,4.61v7.94c0,2.54,2.07,4.61,4.61,4.61h2.54
		c0.26,0.71,0.55,1.42,0.88,2.12l-1.8,1.8c-1.8,1.8-1.8,4.73,0,6.53L415.9,173.46z M411.8,151.97h-2.32v-6.31h2.32
		c1.97,0,3.72-1.28,4.37-3.18c0.28-0.82,0.62-1.65,1.02-2.45c0.89-1.8,0.55-3.94-0.84-5.34l-1.64-1.64l4.46-4.46l1.64,1.64
		c1.4,1.4,3.54,1.74,5.34,0.84c0.79-0.39,1.61-0.73,2.45-1.02c1.9-0.64,3.18-2.4,3.18-4.37v-2.32h6.31v2.32
		c0,1.97,1.28,3.72,3.18,4.37c0.84,0.28,1.67,0.63,2.45,1.02c1.8,0.89,3.94,0.56,5.34-0.84l1.64-1.64l4.46,4.46l-1.64,1.64
		c-1.39,1.4-1.73,3.54-0.83,5.34c0.39,0.78,0.73,1.61,1.02,2.45c0.64,1.9,2.4,3.18,4.37,3.18h2.32v6.31h-2.32
		c-1.97,0-3.73,1.28-4.37,3.18c-0.28,0.83-0.62,1.66-1.02,2.45c-0.89,1.8-0.55,3.94,0.84,5.34l1.64,1.64l-4.46,4.46l-1.65-1.65
		c-1.4-1.39-3.54-1.73-5.34-0.83c-0.79,0.39-1.61,0.73-2.45,1.02c-1.9,0.64-3.18,2.4-3.18,4.37v2.32h-6.31v-2.32
		c0-1.97-1.28-3.72-3.18-4.37c-0.83-0.28-1.65-0.62-2.45-1.02c-1.79-0.89-3.94-0.55-5.34,0.84l-1.64,1.64l-4.46-4.46l1.64-1.64
		c1.39-1.39,1.73-3.54,0.84-5.34c-0.4-0.81-0.74-1.63-1.02-2.45C415.52,153.25,413.77,151.97,411.8,151.97z"/>
	<path class="st11" d="M434.93,162.24c7.4,0,13.42-6.02,13.42-13.42c0-7.4-6.02-13.42-13.42-13.42c-7.4,0-13.42,6.02-13.42,13.42
		C421.51,156.22,427.53,162.24,434.93,162.24z M434.93,140.83c4.4,0,7.99,3.58,7.99,7.99c0,4.41-3.58,7.99-7.99,7.99
		s-7.99-3.58-7.99-7.99C426.94,144.41,430.52,140.83,434.93,140.83z"/>
	<path class="st11" d="M317.19,312.25l-4.35-16.24c-0.67-2.49-3.78-3.32-5.6-1.5l-3.54,3.54l-38.44-38.61
		c1.26-2.01,2.02-4.36,2.02-6.9c0-6.26-4.44-11.5-10.34-12.75v-35.58h5.02c2.58,0,4.19-2.79,2.9-5.02l-8.41-14.56
		c-0.99-1.72-3.47-1.72-4.46,0l-8.4,14.56c-1.29,2.23,0.32,5.02,2.9,5.02h5.02v35.59c-5.88,1.26-10.31,6.49-10.31,12.74
		c0,7.19,5.85,13.04,13.04,13.04c2.69,0,5.18-0.82,7.26-2.22l38.36,38.53l-3.56,3.56c-1.82,1.82-0.99,4.93,1.5,5.6l16.24,4.35
		C315.95,315.92,317.7,314.17,317.19,312.25z M254.23,260.15c-4.2,0-7.61-3.41-7.61-7.61s3.41-7.61,7.61-7.61
		c4.2,0,7.61,3.41,7.61,7.61S258.43,260.15,254.23,260.15z"/>
	<path class="st11" d="M509.07,270.81h-61.01c-1.5,0-2.72,1.22-2.72,2.72c0,1.5,1.22,2.72,2.72,2.72h61.01
		c1.5,0,2.72-1.22,2.72-2.72C511.78,272.03,510.57,270.81,509.07,270.81z"/>
	<path class="st11" d="M437.67,276.24c1.5,0,2.72-1.22,2.72-2.72c0-1.5-1.22-2.72-2.72-2.72h-9.59c-1.5,0-2.72,1.22-2.72,2.72
		c0,1.5,1.22,2.72,2.72,2.72H437.67z"/>
	<path class="st11" d="M494.92,285.27c0-1.5-1.22-2.72-2.72-2.72h-28.82c-1.5,0-2.72,1.22-2.72,2.72v0c0,1.5,1.22,2.72,2.72,2.72
		h28.82C493.7,287.99,494.92,286.77,494.92,285.27L494.92,285.27z"/>
	<path class="st11" d="M453.75,282.56h-28.82c-1.5,0-2.72,1.22-2.72,2.72v0c0,1.5,1.22,2.72,2.72,2.72h28.82
		c1.5,0,2.72-1.22,2.72-2.72v0C456.47,283.77,455.25,282.56,453.75,282.56z"/>
	<path class="st11" d="M418.01,285.27L418.01,285.27c0-1.5-1.22-2.72-2.72-2.72h-9.59c-1.5,0-2.72,1.22-2.72,2.72v0
		c0,1.5,1.22,2.72,2.72,2.72h9.59C416.8,287.99,418.01,286.77,418.01,285.27z"/>
	<path class="st11" d="M396.07,282.56h-9.59c-1.5,0-2.72,1.22-2.72,2.72v0c0,1.5,1.22,2.72,2.72,2.72h9.59
		c1.5,0,2.72-1.22,2.72-2.72v0C398.78,283.77,397.57,282.56,396.07,282.56z"/>
	<path class="st11" d="M492.2,318.69h-28.82c-1.5,0-2.72,1.22-2.72,2.72c0,1.5,1.22,2.72,2.72,2.72h28.82c1.5,0,2.72-1.22,2.72-2.72
		C494.92,319.91,493.7,318.69,492.2,318.69z"/>
	<path class="st11" d="M453.75,318.69h-28.82c-1.5,0-2.72,1.22-2.72,2.72c0,1.5,1.22,2.72,2.72,2.72h28.82
		c1.5,0,2.72-1.22,2.72-2.72C456.47,319.91,455.25,318.69,453.75,318.69z"/>
	<path class="st11" d="M415.3,318.69h-9.59c-1.5,0-2.72,1.22-2.72,2.72c0,1.5,1.22,2.72,2.72,2.72h9.59c1.5,0,2.72-1.22,2.72-2.72
		C418.01,319.91,416.8,318.69,415.3,318.69z"/>
	<path class="st11" d="M508.96,306.83h-19.08c-1.33,0-2.41,1.08-2.41,2.41s1.08,2.41,2.41,2.41h19.08c1.33,0,2.41-1.08,2.41-2.41
		S510.29,306.83,508.96,306.83z"/>
	<path class="st11" d="M463.05,311.65h19.08c1.33,0,2.41-1.08,2.41-2.41s-1.08-2.41-2.41-2.41h-19.08c-1.33,0-2.41,1.08-2.41,2.41
		S461.72,311.65,463.05,311.65z"/>
	<path class="st11" d="M455.31,306.83h-5.67c-1.33,0-2.41,1.08-2.41,2.41s1.08,2.41,2.41,2.41h5.67c1.33,0,2.41-1.08,2.41-2.41
		S456.63,306.83,455.31,306.83z"/>
	<path class="st11" d="M441.89,306.83h-5.67c-1.33,0-2.41,1.08-2.41,2.41s1.08,2.41,2.41,2.41h5.67c1.33,0,2.41-1.08,2.41-2.41
		S443.22,306.83,441.89,306.83z"/>
	<path class="st11" d="M492.2,294.53h-1.67c-1.5,0-2.72,1.22-2.72,2.72s1.22,2.72,2.72,2.72h1.67c1.5,0,2.72-1.22,2.72-2.72
		S493.7,294.53,492.2,294.53z"/>
	<path class="st11" d="M442.37,294.98h-28.82c-1.5,0-2.72,1.22-2.72,2.72s1.22,2.72,2.72,2.72h28.82c1.5,0,2.72-1.22,2.72-2.72
		S443.87,294.98,442.37,294.98z"/>
	<path class="st11" d="M449.29,297.69c0,1.5,1.22,2.72,2.72,2.72h9.59c1.5,0,2.72-1.22,2.72-2.72s-1.22-2.72-2.72-2.72h-9.59
		C450.51,294.98,449.29,296.19,449.29,297.69z"/>
	<path class="st11" d="M471.24,294.98c-1.5,0-2.72,1.22-2.72,2.72s1.22,2.72,2.72,2.72h9.59c1.5,0,2.72-1.22,2.72-2.72
		s-1.22-2.72-2.72-2.72H471.24z"/>
	<path class="st11" d="M486.69,256.03c-1.07,1.05-1.09,2.77-0.04,3.84c0.53,0.54,1.23,0.81,1.94,0.81c0.69,0,1.37-0.26,1.9-0.78
		l7.12-6.99c1.17-1.15,1.81-2.69,1.81-4.33s-0.64-3.18-1.82-4.33l-7.12-6.99c-1.07-1.05-2.79-1.03-3.84,0.04
		c-1.05,1.07-1.03,2.79,0.04,3.84l7.12,6.99c0.16,0.15,0.19,0.33,0.19,0.45c0,0.12-0.03,0.3-0.19,0.45L486.69,256.03z"/>
	<path class="st11" d="M459.77,241.1c1.07-1.05,1.09-2.77,0.04-3.84c-1.06-1.07-2.77-1.09-3.84-0.04l-7.12,6.99
		c-1.17,1.15-1.81,2.69-1.81,4.33c0,1.64,0.64,3.18,1.82,4.33l7.12,6.99c0.53,0.52,1.21,0.78,1.9,0.78c0.7,0,1.41-0.27,1.94-0.81
		c1.05-1.07,1.03-2.79-0.04-3.84l-7.12-6.98c-0.16-0.15-0.19-0.33-0.19-0.45c0-0.12,0.03-0.3,0.19-0.45L459.77,241.1z"/>
	<path class="st11" d="M467.16,263.02c0.35,0.15,0.72,0.22,1.08,0.22c1.05,0,2.05-0.61,2.49-1.64l10.3-23.86
		c0.59-1.38-0.04-2.97-1.42-3.57c-1.37-0.59-2.97,0.04-3.57,1.42l-10.3,23.86C465.15,260.83,465.78,262.42,467.16,263.02z"/>
	<circle class="st11" cx="487.84" cy="105.94" r="2.01"/>
	<path class="st11" d="M495.97,108.77c-1.11,0-2.01,0.9-2.01,2.01c0,1.11,0.9,2.01,2.01,2.01c1.11,0,2.01-0.9,2.01-2.01
		C497.98,109.67,497.08,108.77,495.97,108.77z"/>
	<path class="st11" d="M481.31,102.72c-1.11,0-2.01,0.9-2.01,2.01c0,1.11,0.9,2.01,2.01,2.01c1.11,0,2.01-0.9,2.01-2.01
		C483.32,103.62,482.42,102.72,481.31,102.72z"/>
	<path class="st11" d="M569.61,160.29l8.22-6.19l-0.01-0.01c4.62-3.38,2.33-11.8-2.37-18.41c-4.71-6.65-11.96-11.62-16.66-8.28l0,0
		c-0.02,0.02-0.03,0.04-0.05,0.05l-0.01-0.01l-9.3,7c-28.88-30.08-67.03-46.65-107.47-46.65h-7.03v-4.13
		c14.62-0.43,32.22-2.21,32.22-8.38v-8.09c0-7.39-25.35-8.5-40.46-8.5c-15.11,0-40.46,1.1-40.46,8.5v8.09
		c0,6.2,17.81,7.97,32.47,8.38v4.12h-11.75c-28.5,0-56.22,8.44-80.21,24.07l-8.97-6.75l-1.64,2.17l1.57-2.22
		c-1.31-0.93-4.19-2.07-8.78,0.65c-2.75,1.63-5.55,4.34-7.88,7.62c-2.44,3.43-4.03,7.04-4.61,10.19
		c-13.23-4.92-27.41-7.68-42.2-7.68c-50.62,0-94.48,31.29-115.43,76.62c-0.04,0.06-0.1,0.09-0.14,0.16
		c-0.07,0.13-0.08,0.27-0.13,0.41c-7.85,17.18-12.37,36.36-12.78,56.61H87.97c-1.42-20.05-16.21-35.82-34.29-35.82
		c-1.96,0-9.86-0.03-12-0.03c-20.28,0-36.78,17.49-36.78,38.99c0,21.5,16.5,38.99,36.78,38.99c0.02,0,0.04,0,0.05,0h11.95
		c0,0,0,0,0,0c0,0,0,0,0,0h0.92v-0.05c17.91-0.54,32.37-16.53,33.4-36.64h37.72c1.27,74.23,58.4,134.2,128.49,134.2
		c19.33,0,37.64-4.62,54.1-12.79l0.46,0.38c27.48,24.31,62.34,37.7,98.15,37.7h35.02c19.4,0,38.99-4.35,61.66-13.7
		c12.56-5.18,25.14-14.84,25.61-15.21c41.53-30.56,66.33-80.83,66.33-134.47C595.57,218.63,586.59,187.21,569.61,160.29z
		 M41.67,286.35c-17.29,0-31.35-15.05-31.35-33.56c0-18.5,14.06-33.56,31.35-33.56c17.28,0,31.35,15.05,31.35,33.56
		C73.02,271.3,58.96,286.35,41.67,286.35z M561.93,131.84L561.93,131.84c0.72-0.47,5.01,1.23,9.1,6.99
		c4.09,5.77,4.28,10.41,3.6,10.89c-0.7,0.49-5.01-1.22-9.1-6.99C561.43,136.97,561.24,132.34,561.93,131.84z M556.53,135.9
		c0.66,3.24,2.32,6.81,4.57,9.97c2.33,3.29,5.29,6.16,8.24,7.82l-14.66,11.04c-0.7,0.46-4.99-1.22-9.09-6.99
		c-1.87-2.64-3.22-5.51-3.7-7.88c-0.39-1.94-0.06-2.89,0.1-3.01l0.06-0.04L556.53,135.9z M454.93,93.9
		c-0.12,0.26-0.19,0.53-0.19,0.83c0,0.58,0.26,1.1,0.65,1.46c-2.9-1.03-5.83-2-8.8-2.84C449.38,93.44,452.16,93.64,454.93,93.9z
		 M426.68,64.14c17.23,0,28.32,1.66,33.01,3.07c-4.69,1.4-15.77,3.07-33.01,3.07c-17.23,0-28.32-1.66-33.01-3.07
		C398.36,65.8,409.45,64.14,426.68,64.14z M391.65,74.51v-2.4c8.27,3.01,24.24,3.59,35.03,3.59c10.79,0,26.76-0.58,35.03-3.59v2.4
		c-2.57,1.47-14.4,3.86-35.03,3.86C406.05,78.37,394.22,75.99,391.65,74.51z M305.46,116.49c1.87-2.64,4.14-4.86,6.22-6.09
		c1.69-1.01,2.7-1.01,2.87-0.9l7.41,5.58c-5.42,3.83-10.62,8.06-15.59,12.63c-1.56-0.74-3.14-1.44-4.73-2.11
		C301.76,123.48,302.85,120.16,305.46,116.49z M256.93,383.79v-13.54c0-1.5-1.21-2.71-2.72-2.71c-1.5,0-2.71,1.22-2.71,2.71v13.54
		c-21.4-0.5-41.46-6.84-58.86-17.59l9.82-14.43c0.84-1.24,0.52-2.93-0.72-3.77c-1.23-0.84-2.93-0.52-3.77,0.72l-9.88,14.53
		c-15.67-10.68-28.93-25.02-38.71-41.9l8.27-5.88c0.47,0.82,0.92,1.63,1.42,2.45l2.32-1.4c-0.53-0.88-1.02-1.75-1.52-2.63l3.04-2.16
		c1.22-0.87,1.51-2.56,0.64-3.79c-0.86-1.22-2.55-1.51-3.79-0.64l-13.01,9.26c-9.59-18.25-15.2-39.18-15.6-61.45h9.88l0,0.29h2.72
		l0-0.29h39.01v-5.43h-51.59c0.38-18.44,4.34-35.95,11.17-51.78l14.93,8.52c0.42,0.24,0.89,0.36,1.34,0.36
		c0.94,0,1.86-0.49,2.36-1.37c0.75-1.3,0.29-2.96-1.01-3.7l-3.68-2.11c0.21-0.45,0.41-0.95,0.62-1.39l-2.46-1.15
		c-0.18,0.38-0.35,0.8-0.53,1.19l-9.3-5.31c8.72-18.14,21.26-33.86,36.52-45.9l11.73,15.46c0.54,0.7,1.34,1.07,2.17,1.07
		c0.57,0,1.15-0.18,1.64-0.55c1.19-0.91,1.43-2.61,0.52-3.8l-11.74-15.46c14.74-10.62,31.74-17.93,50.06-20.93l15.5,26.84
		c0.8,1.38,2.79,1.38,3.59,0l15.71-27.2c18.13,2.53,35.02,9.28,49.79,19.3l-9.8,12.21c-0.94,1.17-0.75,2.88,0.42,3.82
		c0.5,0.4,1.1,0.6,1.7,0.6c0.8,0,1.58-0.35,2.12-1.02l10-12.46c15.29,11.39,28.06,26.37,37.21,43.81l-14.51,7.77
		c-1.32,0.71-1.82,2.35-1.11,3.67c0.49,0.91,1.43,1.43,2.4,1.43c0.43,0,0.87-0.1,1.28-0.32l14.36-7.69
		c8.06,16.99,12.74,36.09,13.13,56.3h-14.97c-1.5,0-2.71,1.22-2.71,2.71c0,1.5,1.21,2.72,2.71,2.72h14.97
		c-0.4,20.94-5.41,40.68-14.01,58.13l-12.62-7.21c-1.3-0.75-2.96-0.29-3.7,1.01c-0.75,1.3-0.29,2.96,1.01,3.7l12.81,7.32
		c-9.32,17.12-22.13,31.82-37.43,42.92l-9.12-12.02c-0.91-1.19-2.61-1.43-3.8-0.52c-1.2,0.91-1.43,2.61-0.52,3.8l8.98,11.82
		C300.78,376.19,279.6,383.26,256.93,383.79z M525.33,236.44c-1.5,0-2.72,1.21-2.72,2.71v91.03c0,0.23,0.08,0.44,0.13,0.66
		c-21.57,36.24-57.66,61.71-99.5,67.03c-33.32-3.85-63.25-18.8-86.01-41.06c11.83-10.67,21.84-23.55,29.42-38.07
		c0.04-0.06,0.12-0.09,0.16-0.16c0.06-0.11,0.07-0.23,0.11-0.34c2.96-5.73,5.5-11.73,7.68-17.92c0.16,0.03,0.31,0.1,0.49,0.1h28.82
		c1.5,0,2.72-1.22,2.72-2.72s-1.22-2.72-2.72-2.72h-27.49c4.11-13.35,6.34-27.6,6.34-42.4c0-10.27-1.09-20.27-3.13-29.9
		c0.6-0.86,0.97-1.87,0.97-2.96l-0.11-3.85c1.35-0.45,2.69-1.01,3.73-1.73l2.89,2.89c1.96,1.96,5.38,1.97,7.34,0l7.31-7.31
		c2.02-2.02,2.02-5.31,0-7.34l-2.8-2.64c0.64-1.3,1.2-2.63,1.42-3.86h4.09c2.86,0,5.19-2.33,5.19-5.19v-10.34
		c0-2.86-2.33-5.19-5.19-5.19l-3.85,0.11c-0.45-1.35-1.01-2.69-1.73-3.73l2.89-2.89c2.02-2.02,2.02-5.31,0-7.34l-7.31-7.31
		c-1.96-1.96-5.39-1.95-7.34,0l-2.65,2.8c-1.29-0.64-2.63-1.2-3.86-1.42v-4.08c0-2.86-2.33-5.19-5.19-5.19h-10.34
		c-2.86,0-5.19,2.33-5.19,5.19l0.11,3.85c-1.36,0.46-2.7,1.01-3.73,1.73l-2.89-2.89c-1.96-1.96-5.38-1.96-7.34,0l-1.54,1.54
		c-2.74-2.88-5.56-5.65-8.53-8.26c20.23-20.28,46.33-34.7,75.54-40.5c73.47,2.59,132.51,67.07,132.51,146.02
		c0,24.69-5.79,47.96-15.98,68.37v-82.01C528.04,237.66,526.83,236.44,525.33,236.44z M361.89,178.15c2.12-2.4,5.12-3.87,8.36-3.87
		c6.19,0,11.23,5.04,11.23,11.23c0,5.79-4.42,10.52-10.06,11.11C368.68,190.18,365.49,184.01,361.89,178.15z M386.91,185.5
		c0-9.18-7.47-16.66-16.66-16.66c-4.29,0-8.34,1.66-11.4,4.54c-3.27-4.87-6.85-9.48-10.68-13.84l1.55-1.55l2.72,2.72
		c1.56,1.57,3.98,1.94,6.01,0.94c1.06-0.53,2.17-0.99,3.3-1.37c2.14-0.72,3.58-2.7,3.58-4.91v-3.84h9.86v3.84
		c0,2.21,1.44,4.19,3.58,4.91c1.11,0.37,2.22,0.84,3.3,1.37c2.02,1.01,4.44,0.63,6.01-0.94l2.72-2.72l6.97,6.97l-2.72,2.72
		c-1.57,1.57-1.94,3.98-0.94,6.01c0.53,1.07,0.99,2.18,1.37,3.3c0.73,2.14,2.7,3.58,4.91,3.58h3.84v9.86h-3.84
		c-2.21,0-4.18,1.44-4.91,3.58c-0.37,1.11-0.83,2.22-1.37,3.29c-1.01,2.03-0.63,4.44,0.94,6.01l2.72,2.72l-6.97,6.97l-2.72-2.72
		c-1.57-1.57-3.98-1.95-6-0.94c-1.07,0.53-2.18,0.99-3.3,1.37c-0.73,0.25-1.33,0.67-1.87,1.17c-1.01-3.41-2.12-6.77-3.37-10.06
		C381.14,200.31,386.91,193.57,386.91,185.5z M406.94,409.15c-33.96,0-67.04-12.54-93.41-35.37c1.46-0.81,2.89-1.69,4.32-2.56
		l3.58,2.84c24.82,19.83,54.39,30.31,85.51,30.31c78.58,0,142.51-68,142.51-151.58c0-83.58-63.93-151.58-142.51-151.58
		c-31.1,0-60.64,10.46-85.47,30.27l-3.27,2.67c-2.18-1.34-4.4-2.59-6.65-3.79c26.67-23.94,60.42-37.13,95.39-37.13
		c81.7,0,148.17,70.86,148.17,157.96C555.11,338.29,488.64,409.15,406.94,409.15z M447.36,408.98c-0.24,0.01-0.48,0.04-0.73,0.05
		c0.29-0.08,0.58-0.18,0.88-0.27C447.45,408.82,447.41,408.9,447.36,408.98z M450.57,408.77c-0.26-0.32-0.6-0.54-1.01-0.65
		c1.07-0.33,2.15-0.64,3.21-0.99c0.12,0.62,0.49,1.13,1.04,1.41C452.73,408.63,451.65,408.7,450.57,408.77z M525.97,381.33
		c-0.13,0.1-12.52,9.62-24.41,14.53c-1.15,0.48-2.27,0.89-3.41,1.34c0.27-0.34,0.45-0.75,0.45-1.22c0-1.11-0.9-2.01-2.01-2.01
		c-1.11,0-2.01,0.9-2.01,2.01c0,1,0.75,1.8,1.71,1.95c-2.39,0.92-4.74,1.78-7.06,2.58c0.04-0.16,0.1-0.32,0.1-0.49
		c0-1.11-0.9-2.01-2.01-2.01c-1.11,0-2.01,0.9-2.01,2.01c0,0.64,0.32,1.19,0.79,1.56c-2.05,0.67-4.09,1.3-6.09,1.88
		c-0.25-0.82-0.99-1.43-1.89-1.43c-1.11,0-2.01,0.9-2.01,2.01c0,0.15,0.05,0.29,0.09,0.43c-1.66,0.44-3.32,0.85-4.96,1.22
		c-0.36-0.55-0.95-0.94-1.66-0.94c-1.01,0-1.8,0.75-1.95,1.72c-1.42,0.28-2.83,0.53-4.23,0.77c-0.3-0.73-1.02-1.24-1.85-1.24
		c-1.06,0-1.9,0.83-1.98,1.87c-1.2,0.17-2.39,0.28-3.58,0.41c0.44-0.37,0.74-0.9,0.74-1.52c0-0.35-0.11-0.66-0.27-0.95
		c2.47-0.9,4.93-1.85,7.34-2.88c0.33,0.65,0.99,1.1,1.77,1.1c1.11,0,2.01-0.9,2.01-2.01c0-0.25-0.06-0.49-0.15-0.72
		c1.45-0.66,2.89-1.34,4.32-2.05c-0.1,0.23-0.15,0.49-0.15,0.76c0,1.11,0.9,2.01,2.01,2.01s2.01-0.9,2.01-2.01
		c0-0.96-0.68-1.72-1.58-1.92c2.58-1.34,5.14-2.73,7.63-4.22c0.16,0.04,0.31,0.1,0.47,0.1c0.96,0,1.72-0.69,1.92-1.59
		c45.69-28.34,76.49-80.99,76.49-141.2c0-57.16-27.76-107.53-69.67-136.73c0.57-0.35,0.98-0.96,0.98-1.68c0-1.11-0.9-2.01-2.01-2.01
		c-0.99,0-1.78,0.73-1.94,1.67c-4.4-2.91-8.94-5.59-13.62-8.03c0.59-0.35,1-0.96,1-1.7c0-1.11-0.9-2.01-2.01-2.01
		c-1.11,0-2.01,0.9-2.01,2.01c0,0.06,0.03,0.11,0.04,0.18c-2.47-1.22-4.97-2.37-7.51-3.45c0.39-0.37,0.64-0.88,0.64-1.46
		c0-1.11-0.9-2.01-2.01-2.01c-1.11,0-2.01,0.9-2.01,2.01c0,0.03,0.02,0.06,0.02,0.09c-1.19-0.47-2.38-0.92-3.58-1.36
		c1.06-0.06,1.9-0.92,1.9-1.99c0-0.16-0.05-0.29-0.09-0.44c3,0.36,5.99,0.79,8.96,1.34c-0.22,0.32-0.37,0.69-0.37,1.1
		c0,1.11,0.9,2.01,2.01,2.01c1.11,0,2.01-0.9,2.01-2.01c0-0.13-0.05-0.24-0.07-0.36c1.41,0.3,2.82,0.61,4.22,0.96
		c-0.07,0.21-0.13,0.43-0.13,0.66c0,1.11,0.9,2.01,2.01,2.01c0.99,0,1.78-0.73,1.94-1.68c1.63,0.45,3.24,0.94,4.85,1.45
		c-0.16,0.29-0.27,0.6-0.27,0.95c0,1.11,0.9,2.01,2.01,2.01c1.02,0,1.83-0.77,1.96-1.76c2.02,0.7,4.02,1.43,6.01,2.22
		c-0.46,0.37-0.78,0.91-0.78,1.55c0,1.11,0.9,2.01,2.01,2.01s2.01-0.9,2.01-2.01c0-0.07-0.03-0.13-0.04-0.2
		c2.02,0.86,4.02,1.77,6.01,2.73c-0.43,0.37-0.71,0.89-0.71,1.5c0,1.11,0.9,2.01,2.01,2.01c1.07,0,1.93-0.85,1.99-1.91
		c14.12,7.26,27.2,16.95,38.76,28.89l-6.25,4.71l0,0c-1.31,0.95-3.26,3.29-2.22,8.46c0.63,3.14,2.26,6.67,4.59,9.95
		c3.67,5.18,8.88,9.35,13.24,9.35c1.23,0,2.39-0.33,3.42-1.07l0.06-0.04l7.35-5.53c16.28,25.97,24.9,56.23,24.9,87.61
		C590.14,303.12,566.17,351.76,525.97,381.33z"/>
	<path class="st11" d="M480.13,396.8c-1.11,0-2.01,0.9-2.01,2.01c0,1.11,0.9,2.01,2.01,2.01c1.11,0,2.01-0.9,2.01-2.01
		C482.13,397.7,481.23,396.8,480.13,396.8z"/>
	<circle class="st11" cx="488.26" cy="393.98" r="2.01"/>
	<circle class="st11" cx="48.14" cy="172.18" r="2.58"/>
	<path class="st11" d="M162,322.53c0.99,1.5,2.02,3.01,3.1,4.52l2.21-1.58c-1.06-1.48-2.07-2.96-3.04-4.43L162,322.53z"/>
	<path class="st11" d="M149.98,292.24l-2.57,0.88c0.59,1.71,1.22,3.43,1.9,5.15l2.52-0.99
		C151.18,295.59,150.56,293.91,149.98,292.24z"/>
	<path class="st11" d="M168.36,331.45c1.09,1.43,2.23,2.86,3.41,4.29l2.09-1.73c-1.16-1.4-2.27-2.81-3.35-4.21L168.36,331.45z"/>
	<path class="st11" d="M151.44,303.34c0.73,1.65,1.51,3.3,2.34,4.96l2.43-1.21c-0.81-1.62-1.57-3.25-2.29-4.86L151.44,303.34z"/>
	<path class="st11" d="M166.29,178.66l-1.02-0.71c-0.64,0.92-1.7,2.48-3.02,4.61l2.31,1.43c1.17-1.88,2.12-3.31,2.76-4.22l2.96,2.59
		l1.79-2.04l-4.09-3.58L166.29,178.66z"/>
	<path class="st11" d="M156.85,192.12l2.41,1.24c0.88-1.72,1.74-3.3,2.55-4.74l-2.37-1.33
		C158.62,188.76,157.75,190.37,156.85,192.12z"/>
	
		<rect x="175.7" y="328.78" transform="matrix(0.6934 -0.7206 0.7206 0.6934 -183.1874 229.7934)" class="st11" width="5.43" height="2.72"/>
	<path class="st11" d="M145.16,222.8l2.63,0.67c0.45-1.77,0.93-3.5,1.44-5.18l-2.6-0.78C146.11,219.24,145.62,221,145.16,222.8z"/>
	<path class="st11" d="M146.98,281.95l-2.64,0.64c0.43,1.76,0.9,3.53,1.42,5.31l2.6-0.76C147.85,285.39,147.39,283.66,146.98,281.95
		z"/>
	<path class="st11" d="M141.47,244.41l2.7,0.23c0.15-1.8,0.34-3.58,0.57-5.34l-2.69-0.35C141.82,240.75,141.63,242.57,141.47,244.41
		z"/>
	
		<rect x="175.94" y="183.99" transform="matrix(0.6586 -0.7525 0.7525 0.6586 -79.961 197.1583)" class="st11" width="2.71" height="5.43"/>
	<path class="st11" d="M142.87,233.53l2.68,0.46c0.3-1.79,0.65-3.55,1.02-5.28l-2.66-0.57C143.53,229.91,143.18,231.7,142.87,233.53
		z"/>
	<path class="st11" d="M144.95,271.41l-2.69,0.39c0.26,1.79,0.56,3.6,0.91,5.42l2.67-0.51C145.49,274.93,145.2,273.16,144.95,271.41
		z"/>
	<path class="st11" d="M143.9,260.74l-2.71,0.14c0.09,1.81,0.23,3.64,0.4,5.48l2.7-0.26C144.12,264.29,143.99,262.5,143.9,260.74z"
		/>
	<path class="st11" d="M148.29,212.29l2.57,0.87c0.59-1.74,1.2-3.43,1.82-5.06l-2.53-0.97C149.51,208.8,148.89,210.52,148.29,212.29
		z"/>
	
		<rect x="200.45" y="205.44" transform="matrix(0.6586 -0.7525 0.7525 0.6586 -87.739 222.9307)" class="st11" width="2.71" height="5.43"/>
	
		<rect x="216.8" y="219.75" transform="matrix(0.6586 -0.7525 0.7525 0.6586 -92.9258 240.0876)" class="st11" width="2.71" height="5.43"/>
	
		<rect x="220.86" y="281.82" transform="matrix(0.6932 -0.7207 0.7207 0.6932 -135.5059 248.0208)" class="st11" width="5.43" height="2.72"/>
	<path class="st11" d="M228.51,254.56l-2.71,0.2c0.14,1.9,0.48,3.79,1.02,5.62l2.6-0.77C228.94,257.97,228.63,256.27,228.51,254.56z
		"/>
	
		<rect x="213.34" y="289.65" transform="matrix(0.693 -0.7209 0.7209 0.693 -143.4677 245.0834)" class="st11" width="5.43" height="2.72"/>
	
		<rect x="208.62" y="212.6" transform="matrix(0.6586 -0.7525 0.7525 0.6586 -90.3317 231.5167)" class="st11" width="2.71" height="5.43"/>
	
		<rect x="228.39" y="273.99" transform="matrix(0.6934 -0.7206 0.7206 0.6934 -127.5496 250.961)" class="st11" width="5.43" height="2.72"/>
	<path class="st11" d="M231.56,236l0.03,0.02c-0.6,0.76-1.17,1.56-1.69,2.38l2.3,1.45c0.69-1.09,1.46-2.12,2.31-3.09l0.9-1.02
		l-2.05-1.79L231.56,236z"/>
	<path class="st11" d="M228.99,265.65c0.91,1.66,2,3.24,3.24,4.7l2.06-1.76c-1.12-1.31-2.1-2.73-2.91-4.23L228.99,265.65z"/>
	
		<rect x="224.97" y="226.9" transform="matrix(0.6587 -0.7524 0.7524 0.6587 -95.5189 248.6622)" class="st11" width="2.71" height="5.43"/>
	
		<rect x="190.75" y="313.13" transform="matrix(0.6932 -0.7207 0.7207 0.6932 -167.3096 235.9249)" class="st11" width="5.43" height="2.72"/>
	
		<rect x="192.28" y="198.29" transform="matrix(0.6587 -0.7524 0.7524 0.6587 -85.1481 214.3046)" class="st11" width="2.71" height="5.43"/>
	
		<rect x="183.23" y="320.96" transform="matrix(0.6934 -0.7206 0.7206 0.6934 -175.2396 232.8174)" class="st11" width="5.43" height="2.72"/>
	
		<rect x="198.28" y="305.3" transform="matrix(0.6934 -0.7206 0.7206 0.6934 -159.3424 238.8656)" class="st11" width="5.43" height="2.72"/>
	
		<rect x="205.81" y="297.48" transform="matrix(0.6934 -0.7206 0.7206 0.6934 -151.3945 241.8891)" class="st11" width="5.43" height="2.72"/>
	<path class="st11" d="M225.99,249.06l2.69,0.38c0.24-1.7,0.66-3.37,1.25-4.97l-2.54-0.94C226.72,245.3,226.25,247.17,225.99,249.06
		z"/>
	
		<rect x="184.11" y="191.14" transform="matrix(0.6587 -0.7524 0.7524 0.6587 -82.5552 205.7152)" class="st11" width="2.71" height="5.43"/>
	<path class="st11" d="M58.52,192.14c0.17,0.09,0.25,0.3,0.17,0.48l-3.08,6.77c-0.17,0.38,0.31,0.71,0.6,0.41l9.33-9.37
		c0.18-0.19,0.12-0.5-0.11-0.6l-5.43-2.36c-0.22-0.1-0.29-0.37-0.15-0.56l3.73-6.67c0.2-0.36-0.24-0.73-0.56-0.48l-10.77,8.49
		c-0.23,0.16-0.2,0.5,0.04,0.63L58.52,192.14z"/>
	<path class="st11" d="M13.86,207.09c0.88-1.97,1.19-3.93,1.3-5.9c1.97-0.11,3.93-0.42,5.9-1.3c-1.97-0.88-3.93-1.19-5.9-1.3
		c-0.11-1.97-0.42-3.93-1.3-5.9c-0.88,1.97-1.19,3.93-1.3,5.9c-1.97,0.11-3.93,0.42-5.9,1.3c1.97,0.88,3.93,1.19,5.9,1.3
		C12.67,203.16,12.98,205.13,13.86,207.09z"/>
</g>
</svg>
